<?xml version="1.0" encoding="utf-8" standalone="no"?>
<!DOCTYPE svg PUBLIC "-//W3C//DTD SVG 1.1//EN"
  "http://www.w3.org/Graphics/SVG/1.1/DTD/svg11.dtd">
<svg xmlns:xlink="http://www.w3.org/1999/xlink" width="216pt" height="360pt" viewBox="0 0 216 360" xmlns="http://www.w3.org/2000/svg" version="1.1">
 <metadata>
  <rdf:RDF xmlns:dc="http://purl.org/dc/elements/1.1/" xmlns:cc="http://creativecommons.org/ns#" xmlns:rdf="http://www.w3.org/1999/02/22-rdf-syntax-ns#">
   <cc:Work>
    <dc:type rdf:resource="http://purl.org/dc/dcmitype/StillImage"/>
    <dc:date>2022-12-16T14:34:00.568598</dc:date>
    <dc:format>image/svg+xml</dc:format>
    <dc:creator>
     <cc:Agent>
      <dc:title>Matplotlib v3.6.2, https://matplotlib.org/</dc:title>
     </cc:Agent>
    </dc:creator>
   </cc:Work>
  </rdf:RDF>
 </metadata>
 <defs>
  <style type="text/css">*{stroke-linejoin: round; stroke-linecap: butt}</style>
 </defs>
 <g id="figure_1">
  <g id="patch_1">
   <path d="M 0 360 
L 216 360 
L 216 0 
L 0 0 
z
" style="fill: #ffffff"/>
  </g>
  <g id="axes_1">
   <g id="patch_2">
    <path d="M 27 320.4 
L 194.4 320.4 
L 194.4 43.2 
L 27 43.2 
z
" style="fill: #ffffff"/>
   </g>
   <g id="patch_3">
    <path d="M 27 81.85332 
L 29.169096 81.85332 
L 29.169096 80.438466 
L 27 80.438466 
z
" clip-path="url(#pd94169d28a)" style="fill: #2bff01; opacity: 0.5"/>
   </g>
   <g id="patch_4">
    <path d="M 27 80.438466 
L 30.253644 80.438466 
L 30.253644 79.023612 
L 27 79.023612 
z
" clip-path="url(#pd94169d28a)" style="fill: #2bff01; opacity: 0.5"/>
   </g>
   <g id="patch_5">
    <path d="M 27 79.023612 
L 29.169096 79.023612 
L 29.169096 77.608758 
L 27 77.608758 
z
" clip-path="url(#pd94169d28a)" style="fill: #2bff01; opacity: 0.5"/>
   </g>
   <g id="patch_6">
    <path d="M 27 77.608758 
L 38.930029 77.608758 
L 38.930029 76.193904 
L 27 76.193904 
z
" clip-path="url(#pd94169d28a)" style="fill: #2bff01; opacity: 0.5"/>
   </g>
   <g id="patch_7">
    <path d="M 27 76.193904 
L 38.930029 76.193904 
L 38.930029 74.779049 
L 27 74.779049 
z
" clip-path="url(#pd94169d28a)" style="fill: #2bff01; opacity: 0.5"/>
   </g>
   <g id="patch_8">
    <path d="M 27 74.779049 
L 44.35277 74.779049 
L 44.35277 73.364195 
L 27 73.364195 
z
" clip-path="url(#pd94169d28a)" style="fill: #2bff01; opacity: 0.5"/>
   </g>
   <g id="patch_9">
    <path d="M 27 73.364195 
L 49.77551 73.364195 
L 49.77551 71.949341 
L 27 71.949341 
z
" clip-path="url(#pd94169d28a)" style="fill: #2bff01; opacity: 0.5"/>
   </g>
   <g id="patch_10">
    <path d="M 27 71.949341 
L 69.297376 71.949341 
L 69.297376 70.534487 
L 27 70.534487 
z
" clip-path="url(#pd94169d28a)" style="fill: #2bff01; opacity: 0.5"/>
   </g>
   <g id="patch_11">
    <path d="M 27 70.534487 
L 63.874636 70.534487 
L 63.874636 69.119633 
L 27 69.119633 
z
" clip-path="url(#pd94169d28a)" style="fill: #2bff01; opacity: 0.5"/>
   </g>
   <g id="patch_12">
    <path d="M 27 69.119633 
L 60.620991 69.119633 
L 60.620991 67.704778 
L 27 67.704778 
z
" clip-path="url(#pd94169d28a)" style="fill: #2bff01; opacity: 0.5"/>
   </g>
   <g id="patch_13">
    <path d="M 27 67.704778 
L 53.029155 67.704778 
L 53.029155 66.289924 
L 27 66.289924 
z
" clip-path="url(#pd94169d28a)" style="fill: #2bff01; opacity: 0.5"/>
   </g>
   <g id="patch_14">
    <path d="M 27 66.289924 
L 40.014577 66.289924 
L 40.014577 64.87507 
L 27 64.87507 
z
" clip-path="url(#pd94169d28a)" style="fill: #2bff01; opacity: 0.5"/>
   </g>
   <g id="patch_15">
    <path d="M 27 64.87507 
L 37.845481 64.87507 
L 37.845481 63.460216 
L 27 63.460216 
z
" clip-path="url(#pd94169d28a)" style="fill: #2bff01; opacity: 0.5"/>
   </g>
   <g id="patch_16">
    <path d="M 27 63.460216 
L 36.760933 63.460216 
L 36.760933 62.045362 
L 27 62.045362 
z
" clip-path="url(#pd94169d28a)" style="fill: #2bff01; opacity: 0.5"/>
   </g>
   <g id="patch_17">
    <path d="M 27 62.045362 
L 29.169096 62.045362 
L 29.169096 60.630508 
L 27 60.630508 
z
" clip-path="url(#pd94169d28a)" style="fill: #2bff01; opacity: 0.5"/>
   </g>
   <g id="patch_18">
    <path d="M 27 89.356429 
L 28.084548 89.356429 
L 28.084548 87.369412 
L 27 87.369412 
z
" clip-path="url(#pd94169d28a)" style="fill: #0195ff; opacity: 0.5"/>
   </g>
   <g id="patch_19">
    <path d="M 27 87.369412 
L 27 87.369412 
L 27 85.382395 
L 27 85.382395 
z
" clip-path="url(#pd94169d28a)" style="fill: #0195ff; opacity: 0.5"/>
   </g>
   <g id="patch_20">
    <path d="M 27 85.382395 
L 27 85.382395 
L 27 83.395378 
L 27 83.395378 
z
" clip-path="url(#pd94169d28a)" style="fill: #0195ff; opacity: 0.5"/>
   </g>
   <g id="patch_21">
    <path d="M 27 83.395378 
L 28.084548 83.395378 
L 28.084548 81.408361 
L 27 81.408361 
z
" clip-path="url(#pd94169d28a)" style="fill: #0195ff; opacity: 0.5"/>
   </g>
   <g id="patch_22">
    <path d="M 27 81.408361 
L 31.338192 81.408361 
L 31.338192 79.421344 
L 27 79.421344 
z
" clip-path="url(#pd94169d28a)" style="fill: #0195ff; opacity: 0.5"/>
   </g>
   <g id="patch_23">
    <path d="M 27 79.421344 
L 36.760933 79.421344 
L 36.760933 77.434327 
L 27 77.434327 
z
" clip-path="url(#pd94169d28a)" style="fill: #0195ff; opacity: 0.5"/>
   </g>
   <g id="patch_24">
    <path d="M 27 77.434327 
L 47.606414 77.434327 
L 47.606414 75.44731 
L 27 75.44731 
z
" clip-path="url(#pd94169d28a)" style="fill: #0195ff; opacity: 0.5"/>
   </g>
   <g id="patch_25">
    <path d="M 27 75.44731 
L 62.790087 75.44731 
L 62.790087 73.460293 
L 27 73.460293 
z
" clip-path="url(#pd94169d28a)" style="fill: #0195ff; opacity: 0.5"/>
   </g>
   <g id="patch_26">
    <path d="M 27 73.460293 
L 80.142857 73.460293 
L 80.142857 71.473276 
L 27 71.473276 
z
" clip-path="url(#pd94169d28a)" style="fill: #0195ff; opacity: 0.5"/>
   </g>
   <g id="patch_27">
    <path d="M 27 71.473276 
L 71.466472 71.473276 
L 71.466472 69.486259 
L 27 69.486259 
z
" clip-path="url(#pd94169d28a)" style="fill: #0195ff; opacity: 0.5"/>
   </g>
   <g id="patch_28">
    <path d="M 27 69.486259 
L 58.451895 69.486259 
L 58.451895 67.499242 
L 27 67.499242 
z
" clip-path="url(#pd94169d28a)" style="fill: #0195ff; opacity: 0.5"/>
   </g>
   <g id="patch_29">
    <path d="M 27 67.499242 
L 49.77551 67.499242 
L 49.77551 65.512224 
L 27 65.512224 
z
" clip-path="url(#pd94169d28a)" style="fill: #0195ff; opacity: 0.5"/>
   </g>
   <g id="patch_30">
    <path d="M 27 65.512224 
L 40.014577 65.512224 
L 40.014577 63.525207 
L 27 63.525207 
z
" clip-path="url(#pd94169d28a)" style="fill: #0195ff; opacity: 0.5"/>
   </g>
   <g id="patch_31">
    <path d="M 27 63.525207 
L 31.338192 63.525207 
L 31.338192 61.53819 
L 27 61.53819 
z
" clip-path="url(#pd94169d28a)" style="fill: #0195ff; opacity: 0.5"/>
   </g>
   <g id="patch_32">
    <path d="M 27 61.53819 
L 30.253644 61.53819 
L 30.253644 59.551173 
L 27 59.551173 
z
" clip-path="url(#pd94169d28a)" style="fill: #0195ff; opacity: 0.5"/>
   </g>
   <g id="patch_33">
    <path d="M 27 307.511998 
L 183.174927 307.511998 
L 183.174927 303.430821 
L 27 303.430821 
z
" clip-path="url(#pd94169d28a)" style="fill: #ff6b01; opacity: 0.5"/>
   </g>
   <g id="patch_34">
    <path d="M 27 303.430821 
L 79.058309 303.430821 
L 79.058309 299.349644 
L 27 299.349644 
z
" clip-path="url(#pd94169d28a)" style="fill: #ff6b01; opacity: 0.5"/>
   </g>
   <g id="patch_35">
    <path d="M 27 299.349644 
L 55.198251 299.349644 
L 55.198251 295.268466 
L 27 295.268466 
z
" clip-path="url(#pd94169d28a)" style="fill: #ff6b01; opacity: 0.5"/>
   </g>
   <g id="patch_36">
    <path d="M 27 295.268466 
L 37.845481 295.268466 
L 37.845481 291.187289 
L 27 291.187289 
z
" clip-path="url(#pd94169d28a)" style="fill: #ff6b01; opacity: 0.5"/>
   </g>
   <g id="patch_37">
    <path d="M 27 291.187289 
L 42.183673 291.187289 
L 42.183673 287.106112 
L 27 287.106112 
z
" clip-path="url(#pd94169d28a)" style="fill: #ff6b01; opacity: 0.5"/>
   </g>
   <g id="patch_38">
    <path d="M 27 287.106112 
L 29.169096 287.106112 
L 29.169096 283.024935 
L 27 283.024935 
z
" clip-path="url(#pd94169d28a)" style="fill: #ff6b01; opacity: 0.5"/>
   </g>
   <g id="patch_39">
    <path d="M 27 283.024935 
L 31.338192 283.024935 
L 31.338192 278.943758 
L 27 278.943758 
z
" clip-path="url(#pd94169d28a)" style="fill: #ff6b01; opacity: 0.5"/>
   </g>
   <g id="patch_40">
    <path d="M 27 278.943758 
L 32.422741 278.943758 
L 32.422741 274.86258 
L 27 274.86258 
z
" clip-path="url(#pd94169d28a)" style="fill: #ff6b01; opacity: 0.5"/>
   </g>
   <g id="patch_41">
    <path d="M 27 274.86258 
L 31.338192 274.86258 
L 31.338192 270.781403 
L 27 270.781403 
z
" clip-path="url(#pd94169d28a)" style="fill: #ff6b01; opacity: 0.5"/>
   </g>
   <g id="patch_42">
    <path d="M 27 270.781403 
L 36.760933 270.781403 
L 36.760933 266.700226 
L 27 266.700226 
z
" clip-path="url(#pd94169d28a)" style="fill: #ff6b01; opacity: 0.5"/>
   </g>
   <g id="patch_43">
    <path d="M 27 266.700226 
L 31.338192 266.700226 
L 31.338192 262.619049 
L 27 262.619049 
z
" clip-path="url(#pd94169d28a)" style="fill: #ff6b01; opacity: 0.5"/>
   </g>
   <g id="patch_44">
    <path d="M 27 262.619049 
L 29.169096 262.619049 
L 29.169096 258.537872 
L 27 258.537872 
z
" clip-path="url(#pd94169d28a)" style="fill: #ff6b01; opacity: 0.5"/>
   </g>
   <g id="patch_45">
    <path d="M 27 258.537872 
L 35.676385 258.537872 
L 35.676385 254.456694 
L 27 254.456694 
z
" clip-path="url(#pd94169d28a)" style="fill: #ff6b01; opacity: 0.5"/>
   </g>
   <g id="patch_46">
    <path d="M 27 254.456694 
L 31.338192 254.456694 
L 31.338192 250.375517 
L 27 250.375517 
z
" clip-path="url(#pd94169d28a)" style="fill: #ff6b01; opacity: 0.5"/>
   </g>
   <g id="patch_47">
    <path d="M 27 250.375517 
L 32.422741 250.375517 
L 32.422741 246.29434 
L 27 246.29434 
z
" clip-path="url(#pd94169d28a)" style="fill: #ff6b01; opacity: 0.5"/>
   </g>
   <g id="patch_48">
    <path d="M 27 246.29434 
L 32.422741 246.29434 
L 32.422741 242.213163 
L 27 242.213163 
z
" clip-path="url(#pd94169d28a)" style="fill: #ff6b01; opacity: 0.5"/>
   </g>
   <g id="patch_49">
    <path d="M 27 242.213163 
L 37.845481 242.213163 
L 37.845481 238.131986 
L 27 238.131986 
z
" clip-path="url(#pd94169d28a)" style="fill: #ff6b01; opacity: 0.5"/>
   </g>
   <g id="patch_50">
    <path d="M 27 238.131986 
L 31.338192 238.131986 
L 31.338192 234.050808 
L 27 234.050808 
z
" clip-path="url(#pd94169d28a)" style="fill: #ff6b01; opacity: 0.5"/>
   </g>
   <g id="patch_51">
    <path d="M 27 234.050808 
L 30.253644 234.050808 
L 30.253644 229.969631 
L 27 229.969631 
z
" clip-path="url(#pd94169d28a)" style="fill: #ff6b01; opacity: 0.5"/>
   </g>
   <g id="patch_52">
    <path d="M 27 229.969631 
L 30.253644 229.969631 
L 30.253644 225.888454 
L 27 225.888454 
z
" clip-path="url(#pd94169d28a)" style="fill: #ff6b01; opacity: 0.5"/>
   </g>
   <g id="patch_53">
    <path d="M 27 225.888454 
L 33.507289 225.888454 
L 33.507289 221.807277 
L 27 221.807277 
z
" clip-path="url(#pd94169d28a)" style="fill: #ff6b01; opacity: 0.5"/>
   </g>
   <g id="patch_54">
    <path d="M 27 221.807277 
L 31.338192 221.807277 
L 31.338192 217.7261 
L 27 217.7261 
z
" clip-path="url(#pd94169d28a)" style="fill: #ff6b01; opacity: 0.5"/>
   </g>
   <g id="patch_55">
    <path d="M 27 217.7261 
L 32.422741 217.7261 
L 32.422741 213.644922 
L 27 213.644922 
z
" clip-path="url(#pd94169d28a)" style="fill: #ff6b01; opacity: 0.5"/>
   </g>
   <g id="patch_56">
    <path d="M 27 213.644922 
L 29.169096 213.644922 
L 29.169096 209.563745 
L 27 209.563745 
z
" clip-path="url(#pd94169d28a)" style="fill: #ff6b01; opacity: 0.5"/>
   </g>
   <g id="patch_57">
    <path d="M 27 209.563745 
L 31.338192 209.563745 
L 31.338192 205.482568 
L 27 205.482568 
z
" clip-path="url(#pd94169d28a)" style="fill: #ff6b01; opacity: 0.5"/>
   </g>
   <g id="patch_58">
    <path d="M 27 205.482568 
L 31.338192 205.482568 
L 31.338192 201.401391 
L 27 201.401391 
z
" clip-path="url(#pd94169d28a)" style="fill: #ff6b01; opacity: 0.5"/>
   </g>
   <g id="patch_59">
    <path d="M 27 201.401391 
L 30.253644 201.401391 
L 30.253644 197.320214 
L 27 197.320214 
z
" clip-path="url(#pd94169d28a)" style="fill: #ff6b01; opacity: 0.5"/>
   </g>
   <g id="patch_60">
    <path d="M 27 197.320214 
L 28.084548 197.320214 
L 28.084548 193.239036 
L 27 193.239036 
z
" clip-path="url(#pd94169d28a)" style="fill: #ff6b01; opacity: 0.5"/>
   </g>
   <g id="patch_61">
    <path d="M 27 193.239036 
L 27 193.239036 
L 27 189.157859 
L 27 189.157859 
z
" clip-path="url(#pd94169d28a)" style="fill: #ff6b01; opacity: 0.5"/>
   </g>
   <g id="patch_62">
    <path d="M 27 189.157859 
L 27 189.157859 
L 27 185.076682 
L 27 185.076682 
z
" clip-path="url(#pd94169d28a)" style="fill: #ff6b01; opacity: 0.5"/>
   </g>
   <g id="patch_63">
    <path d="M 27 185.076682 
L 29.169096 185.076682 
L 29.169096 180.995505 
L 27 180.995505 
z
" clip-path="url(#pd94169d28a)" style="fill: #ff6b01; opacity: 0.5"/>
   </g>
   <g id="patch_64">
    <path d="M 27 180.995505 
L 29.169096 180.995505 
L 29.169096 176.914328 
L 27 176.914328 
z
" clip-path="url(#pd94169d28a)" style="fill: #ff6b01; opacity: 0.5"/>
   </g>
   <g id="patch_65">
    <path d="M 27 176.914328 
L 28.084548 176.914328 
L 28.084548 172.83315 
L 27 172.83315 
z
" clip-path="url(#pd94169d28a)" style="fill: #ff6b01; opacity: 0.5"/>
   </g>
   <g id="patch_66">
    <path d="M 27 172.83315 
L 27 172.83315 
L 27 168.751973 
L 27 168.751973 
z
" clip-path="url(#pd94169d28a)" style="fill: #ff6b01; opacity: 0.5"/>
   </g>
   <g id="patch_67">
    <path d="M 27 168.751973 
L 28.084548 168.751973 
L 28.084548 164.670796 
L 27 164.670796 
z
" clip-path="url(#pd94169d28a)" style="fill: #ff6b01; opacity: 0.5"/>
   </g>
   <g id="patch_68">
    <path d="M 27 307.545763 
L 186.428571 307.545763 
L 186.428571 303.12491 
L 27 303.12491 
z
" clip-path="url(#pd94169d28a)" style="fill: #d501ff; opacity: 0.5"/>
   </g>
   <g id="patch_69">
    <path d="M 27 303.12491 
L 75.804665 303.12491 
L 75.804665 298.704057 
L 27 298.704057 
z
" clip-path="url(#pd94169d28a)" style="fill: #d501ff; opacity: 0.5"/>
   </g>
   <g id="patch_70">
    <path d="M 27 298.704057 
L 47.606414 298.704057 
L 47.606414 294.283205 
L 27 294.283205 
z
" clip-path="url(#pd94169d28a)" style="fill: #d501ff; opacity: 0.5"/>
   </g>
   <g id="patch_71">
    <path d="M 27 294.283205 
L 41.099125 294.283205 
L 41.099125 289.862352 
L 27 289.862352 
z
" clip-path="url(#pd94169d28a)" style="fill: #d501ff; opacity: 0.5"/>
   </g>
   <g id="patch_72">
    <path d="M 27 289.862352 
L 36.760933 289.862352 
L 36.760933 285.441499 
L 27 285.441499 
z
" clip-path="url(#pd94169d28a)" style="fill: #d501ff; opacity: 0.5"/>
   </g>
   <g id="patch_73">
    <path d="M 27 285.441499 
L 42.183673 285.441499 
L 42.183673 281.020647 
L 27 281.020647 
z
" clip-path="url(#pd94169d28a)" style="fill: #d501ff; opacity: 0.5"/>
   </g>
   <g id="patch_74">
    <path d="M 27 281.020647 
L 34.591837 281.020647 
L 34.591837 276.599794 
L 27 276.599794 
z
" clip-path="url(#pd94169d28a)" style="fill: #d501ff; opacity: 0.5"/>
   </g>
   <g id="patch_75">
    <path d="M 27 276.599794 
L 33.507289 276.599794 
L 33.507289 272.178941 
L 27 272.178941 
z
" clip-path="url(#pd94169d28a)" style="fill: #d501ff; opacity: 0.5"/>
   </g>
   <g id="patch_76">
    <path d="M 27 272.178941 
L 33.507289 272.178941 
L 33.507289 267.758089 
L 27 267.758089 
z
" clip-path="url(#pd94169d28a)" style="fill: #d501ff; opacity: 0.5"/>
   </g>
   <g id="patch_77">
    <path d="M 27 267.758089 
L 34.591837 267.758089 
L 34.591837 263.337236 
L 27 263.337236 
z
" clip-path="url(#pd94169d28a)" style="fill: #d501ff; opacity: 0.5"/>
   </g>
   <g id="patch_78">
    <path d="M 27 263.337236 
L 33.507289 263.337236 
L 33.507289 258.916383 
L 27 258.916383 
z
" clip-path="url(#pd94169d28a)" style="fill: #d501ff; opacity: 0.5"/>
   </g>
   <g id="patch_79">
    <path d="M 27 258.916383 
L 33.507289 258.916383 
L 33.507289 254.495531 
L 27 254.495531 
z
" clip-path="url(#pd94169d28a)" style="fill: #d501ff; opacity: 0.5"/>
   </g>
   <g id="patch_80">
    <path d="M 27 254.495531 
L 29.169096 254.495531 
L 29.169096 250.074678 
L 27 250.074678 
z
" clip-path="url(#pd94169d28a)" style="fill: #d501ff; opacity: 0.5"/>
   </g>
   <g id="patch_81">
    <path d="M 27 250.074678 
L 33.507289 250.074678 
L 33.507289 245.653825 
L 27 245.653825 
z
" clip-path="url(#pd94169d28a)" style="fill: #d501ff; opacity: 0.5"/>
   </g>
   <g id="patch_82">
    <path d="M 27 245.653825 
L 33.507289 245.653825 
L 33.507289 241.232973 
L 27 241.232973 
z
" clip-path="url(#pd94169d28a)" style="fill: #d501ff; opacity: 0.5"/>
   </g>
   <g id="patch_83">
    <path d="M 27 241.232973 
L 30.253644 241.232973 
L 30.253644 236.81212 
L 27 236.81212 
z
" clip-path="url(#pd94169d28a)" style="fill: #d501ff; opacity: 0.5"/>
   </g>
   <g id="patch_84">
    <path d="M 27 236.81212 
L 32.422741 236.81212 
L 32.422741 232.391267 
L 27 232.391267 
z
" clip-path="url(#pd94169d28a)" style="fill: #d501ff; opacity: 0.5"/>
   </g>
   <g id="patch_85">
    <path d="M 27 232.391267 
L 33.507289 232.391267 
L 33.507289 227.970415 
L 27 227.970415 
z
" clip-path="url(#pd94169d28a)" style="fill: #d501ff; opacity: 0.5"/>
   </g>
   <g id="patch_86">
    <path d="M 27 227.970415 
L 29.169096 227.970415 
L 29.169096 223.549562 
L 27 223.549562 
z
" clip-path="url(#pd94169d28a)" style="fill: #d501ff; opacity: 0.5"/>
   </g>
   <g id="patch_87">
    <path d="M 27 223.549562 
L 29.169096 223.549562 
L 29.169096 219.128709 
L 27 219.128709 
z
" clip-path="url(#pd94169d28a)" style="fill: #d501ff; opacity: 0.5"/>
   </g>
   <g id="patch_88">
    <path d="M 27 219.128709 
L 30.253644 219.128709 
L 30.253644 214.707857 
L 27 214.707857 
z
" clip-path="url(#pd94169d28a)" style="fill: #d501ff; opacity: 0.5"/>
   </g>
   <g id="patch_89">
    <path d="M 27 214.707857 
L 38.930029 214.707857 
L 38.930029 210.287004 
L 27 210.287004 
z
" clip-path="url(#pd94169d28a)" style="fill: #d501ff; opacity: 0.5"/>
   </g>
   <g id="patch_90">
    <path d="M 27 210.287004 
L 29.169096 210.287004 
L 29.169096 205.866151 
L 27 205.866151 
z
" clip-path="url(#pd94169d28a)" style="fill: #d501ff; opacity: 0.5"/>
   </g>
   <g id="patch_91">
    <path d="M 27 205.866151 
L 30.253644 205.866151 
L 30.253644 201.445299 
L 27 201.445299 
z
" clip-path="url(#pd94169d28a)" style="fill: #d501ff; opacity: 0.5"/>
   </g>
   <g id="patch_92">
    <path d="M 27 201.445299 
L 28.084548 201.445299 
L 28.084548 197.024446 
L 27 197.024446 
z
" clip-path="url(#pd94169d28a)" style="fill: #d501ff; opacity: 0.5"/>
   </g>
   <g id="patch_93">
    <path d="M 27 197.024446 
L 31.338192 197.024446 
L 31.338192 192.603593 
L 27 192.603593 
z
" clip-path="url(#pd94169d28a)" style="fill: #d501ff; opacity: 0.5"/>
   </g>
   <g id="patch_94">
    <path d="M 27 192.603593 
L 28.084548 192.603593 
L 28.084548 188.182741 
L 27 188.182741 
z
" clip-path="url(#pd94169d28a)" style="fill: #d501ff; opacity: 0.5"/>
   </g>
   <g id="patch_95">
    <path d="M 27 188.182741 
L 29.169096 188.182741 
L 29.169096 183.761888 
L 27 183.761888 
z
" clip-path="url(#pd94169d28a)" style="fill: #d501ff; opacity: 0.5"/>
   </g>
   <g id="patch_96">
    <path d="M 27 183.761888 
L 27 183.761888 
L 27 179.341035 
L 27 179.341035 
z
" clip-path="url(#pd94169d28a)" style="fill: #d501ff; opacity: 0.5"/>
   </g>
   <g id="patch_97">
    <path d="M 27 179.341035 
L 30.253644 179.341035 
L 30.253644 174.920183 
L 27 174.920183 
z
" clip-path="url(#pd94169d28a)" style="fill: #d501ff; opacity: 0.5"/>
   </g>
   <g id="patch_98">
    <path d="M 27 174.920183 
L 27 174.920183 
L 27 170.49933 
L 27 170.49933 
z
" clip-path="url(#pd94169d28a)" style="fill: #d501ff; opacity: 0.5"/>
   </g>
   <g id="patch_99">
    <path d="M 27 170.49933 
L 27 170.49933 
L 27 166.078477 
L 27 166.078477 
z
" clip-path="url(#pd94169d28a)" style="fill: #d501ff; opacity: 0.5"/>
   </g>
   <g id="patch_100">
    <path d="M 27 166.078477 
L 27 166.078477 
L 27 161.657625 
L 27 161.657625 
z
" clip-path="url(#pd94169d28a)" style="fill: #d501ff; opacity: 0.5"/>
   </g>
   <g id="patch_101">
    <path d="M 27 161.657625 
L 27 161.657625 
L 27 157.236772 
L 27 157.236772 
z
" clip-path="url(#pd94169d28a)" style="fill: #d501ff; opacity: 0.5"/>
   </g>
   <g id="patch_102">
    <path d="M 27 157.236772 
L 28.084548 157.236772 
L 28.084548 152.815919 
L 27 152.815919 
z
" clip-path="url(#pd94169d28a)" style="fill: #d501ff; opacity: 0.5"/>
   </g>
   <g id="matplotlib.axis_1">
    <g id="xtick_1">
     <g id="line2d_1">
      <defs>
       <path id="me70daeb9b8" d="M 0 0 
L 0 3.5 
" style="stroke: #000000; stroke-width: 0.8"/>
      </defs>
      <g>
       <use xlink:href="#me70daeb9b8" x="27" y="320.4" style="stroke: #000000; stroke-width: 0.8"/>
      </g>
     </g>
     <g id="text_1">
      <!-- 0 -->
      <g transform="translate(19.046875 346.396094) scale(0.25 -0.25)">
       <defs>
        <path id="DejaVuSans-30" d="M 2034 4250 
Q 1547 4250 1301 3770 
Q 1056 3291 1056 2328 
Q 1056 1369 1301 889 
Q 1547 409 2034 409 
Q 2525 409 2770 889 
Q 3016 1369 3016 2328 
Q 3016 3291 2770 3770 
Q 2525 4250 2034 4250 
z
M 2034 4750 
Q 2819 4750 3233 4129 
Q 3647 3509 3647 2328 
Q 3647 1150 3233 529 
Q 2819 -91 2034 -91 
Q 1250 -91 836 529 
Q 422 1150 422 2328 
Q 422 3509 836 4129 
Q 1250 4750 2034 4750 
z
" transform="scale(0.015625)"/>
       </defs>
       <use xlink:href="#DejaVuSans-30"/>
      </g>
     </g>
    </g>
    <g id="xtick_2">
     <g id="line2d_2">
      <g>
       <use xlink:href="#me70daeb9b8" x="189.682216" y="320.4" style="stroke: #000000; stroke-width: 0.8"/>
      </g>
     </g>
     <g id="text_2">
      <!-- 150 -->
      <g transform="translate(165.822841 346.396094) scale(0.25 -0.25)">
       <defs>
        <path id="DejaVuSans-31" d="M 794 531 
L 1825 531 
L 1825 4091 
L 703 3866 
L 703 4441 
L 1819 4666 
L 2450 4666 
L 2450 531 
L 3481 531 
L 3481 0 
L 794 0 
L 794 531 
z
" transform="scale(0.015625)"/>
        <path id="DejaVuSans-35" d="M 691 4666 
L 3169 4666 
L 3169 4134 
L 1269 4134 
L 1269 2991 
Q 1406 3038 1543 3061 
Q 1681 3084 1819 3084 
Q 2600 3084 3056 2656 
Q 3513 2228 3513 1497 
Q 3513 744 3044 326 
Q 2575 -91 1722 -91 
Q 1428 -91 1123 -41 
Q 819 9 494 109 
L 494 744 
Q 775 591 1075 516 
Q 1375 441 1709 441 
Q 2250 441 2565 725 
Q 2881 1009 2881 1497 
Q 2881 1984 2565 2268 
Q 2250 2553 1709 2553 
Q 1456 2553 1204 2497 
Q 953 2441 691 2322 
L 691 4666 
z
" transform="scale(0.015625)"/>
       </defs>
       <use xlink:href="#DejaVuSans-31"/>
       <use xlink:href="#DejaVuSans-35" x="63.623047"/>
       <use xlink:href="#DejaVuSans-30" x="127.246094"/>
      </g>
     </g>
    </g>
    <g id="text_3">
     <!-- # particle -->
     <g transform="translate(36.789844 378.390625) scale(0.3 -0.3)">
      <defs>
       <path id="DejaVuSans-23" d="M 3272 2816 
L 2363 2816 
L 2100 1772 
L 3016 1772 
L 3272 2816 
z
M 2803 4594 
L 2478 3297 
L 3391 3297 
L 3719 4594 
L 4219 4594 
L 3897 3297 
L 4872 3297 
L 4872 2816 
L 3775 2816 
L 3519 1772 
L 4513 1772 
L 4513 1294 
L 3397 1294 
L 3072 0 
L 2572 0 
L 2894 1294 
L 1978 1294 
L 1656 0 
L 1153 0 
L 1478 1294 
L 494 1294 
L 494 1772 
L 1594 1772 
L 1856 2816 
L 850 2816 
L 850 3297 
L 1978 3297 
L 2297 4594 
L 2803 4594 
z
" transform="scale(0.015625)"/>
       <path id="DejaVuSans-20" transform="scale(0.015625)"/>
       <path id="DejaVuSans-70" d="M 1159 525 
L 1159 -1331 
L 581 -1331 
L 581 3500 
L 1159 3500 
L 1159 2969 
Q 1341 3281 1617 3432 
Q 1894 3584 2278 3584 
Q 2916 3584 3314 3078 
Q 3713 2572 3713 1747 
Q 3713 922 3314 415 
Q 2916 -91 2278 -91 
Q 1894 -91 1617 61 
Q 1341 213 1159 525 
z
M 3116 1747 
Q 3116 2381 2855 2742 
Q 2594 3103 2138 3103 
Q 1681 3103 1420 2742 
Q 1159 2381 1159 1747 
Q 1159 1113 1420 752 
Q 1681 391 2138 391 
Q 2594 391 2855 752 
Q 3116 1113 3116 1747 
z
" transform="scale(0.015625)"/>
       <path id="DejaVuSans-61" d="M 2194 1759 
Q 1497 1759 1228 1600 
Q 959 1441 959 1056 
Q 959 750 1161 570 
Q 1363 391 1709 391 
Q 2188 391 2477 730 
Q 2766 1069 2766 1631 
L 2766 1759 
L 2194 1759 
z
M 3341 1997 
L 3341 0 
L 2766 0 
L 2766 531 
Q 2569 213 2275 61 
Q 1981 -91 1556 -91 
Q 1019 -91 701 211 
Q 384 513 384 1019 
Q 384 1609 779 1909 
Q 1175 2209 1959 2209 
L 2766 2209 
L 2766 2266 
Q 2766 2663 2505 2880 
Q 2244 3097 1772 3097 
Q 1472 3097 1187 3025 
Q 903 2953 641 2809 
L 641 3341 
Q 956 3463 1253 3523 
Q 1550 3584 1831 3584 
Q 2591 3584 2966 3190 
Q 3341 2797 3341 1997 
z
" transform="scale(0.015625)"/>
       <path id="DejaVuSans-72" d="M 2631 2963 
Q 2534 3019 2420 3045 
Q 2306 3072 2169 3072 
Q 1681 3072 1420 2755 
Q 1159 2438 1159 1844 
L 1159 0 
L 581 0 
L 581 3500 
L 1159 3500 
L 1159 2956 
Q 1341 3275 1631 3429 
Q 1922 3584 2338 3584 
Q 2397 3584 2469 3576 
Q 2541 3569 2628 3553 
L 2631 2963 
z
" transform="scale(0.015625)"/>
       <path id="DejaVuSans-74" d="M 1172 4494 
L 1172 3500 
L 2356 3500 
L 2356 3053 
L 1172 3053 
L 1172 1153 
Q 1172 725 1289 603 
Q 1406 481 1766 481 
L 2356 481 
L 2356 0 
L 1766 0 
Q 1100 0 847 248 
Q 594 497 594 1153 
L 594 3053 
L 172 3053 
L 172 3500 
L 594 3500 
L 594 4494 
L 1172 4494 
z
" transform="scale(0.015625)"/>
       <path id="DejaVuSans-69" d="M 603 3500 
L 1178 3500 
L 1178 0 
L 603 0 
L 603 3500 
z
M 603 4863 
L 1178 4863 
L 1178 4134 
L 603 4134 
L 603 4863 
z
" transform="scale(0.015625)"/>
       <path id="DejaVuSans-63" d="M 3122 3366 
L 3122 2828 
Q 2878 2963 2633 3030 
Q 2388 3097 2138 3097 
Q 1578 3097 1268 2742 
Q 959 2388 959 1747 
Q 959 1106 1268 751 
Q 1578 397 2138 397 
Q 2388 397 2633 464 
Q 2878 531 3122 666 
L 3122 134 
Q 2881 22 2623 -34 
Q 2366 -91 2075 -91 
Q 1284 -91 818 406 
Q 353 903 353 1747 
Q 353 2603 823 3093 
Q 1294 3584 2113 3584 
Q 2378 3584 2631 3529 
Q 2884 3475 3122 3366 
z
" transform="scale(0.015625)"/>
       <path id="DejaVuSans-6c" d="M 603 4863 
L 1178 4863 
L 1178 0 
L 603 0 
L 603 4863 
z
" transform="scale(0.015625)"/>
       <path id="DejaVuSans-65" d="M 3597 1894 
L 3597 1613 
L 953 1613 
Q 991 1019 1311 708 
Q 1631 397 2203 397 
Q 2534 397 2845 478 
Q 3156 559 3463 722 
L 3463 178 
Q 3153 47 2828 -22 
Q 2503 -91 2169 -91 
Q 1331 -91 842 396 
Q 353 884 353 1716 
Q 353 2575 817 3079 
Q 1281 3584 2069 3584 
Q 2775 3584 3186 3129 
Q 3597 2675 3597 1894 
z
M 3022 2063 
Q 3016 2534 2758 2815 
Q 2500 3097 2075 3097 
Q 1594 3097 1305 2825 
Q 1016 2553 972 2059 
L 3022 2063 
z
" transform="scale(0.015625)"/>
      </defs>
      <use xlink:href="#DejaVuSans-23"/>
      <use xlink:href="#DejaVuSans-20" x="83.789062"/>
      <use xlink:href="#DejaVuSans-70" x="115.576172"/>
      <use xlink:href="#DejaVuSans-61" x="179.052734"/>
      <use xlink:href="#DejaVuSans-72" x="240.332031"/>
      <use xlink:href="#DejaVuSans-74" x="281.445312"/>
      <use xlink:href="#DejaVuSans-69" x="320.654297"/>
      <use xlink:href="#DejaVuSans-63" x="348.4375"/>
      <use xlink:href="#DejaVuSans-6c" x="403.417969"/>
      <use xlink:href="#DejaVuSans-65" x="431.201172"/>
     </g>
    </g>
   </g>
   <g id="matplotlib.axis_2">
    <g id="ytick_1">
     <g id="line2d_3">
      <defs>
       <path id="maab263e0bc" d="M 0 0 
L -3.5 0 
" style="stroke: #000000; stroke-width: 0.8"/>
      </defs>
      <g>
       <use xlink:href="#maab263e0bc" x="27" y="69.803357" style="stroke: #000000; stroke-width: 0.8"/>
      </g>
     </g>
     <g id="text_4">
      <!-- 5.6 -->
      <g transform="translate(-19.757812 79.301403) scale(0.25 -0.25)">
       <defs>
        <path id="DejaVuSans-2e" d="M 684 794 
L 1344 794 
L 1344 0 
L 684 0 
L 684 794 
z
" transform="scale(0.015625)"/>
        <path id="DejaVuSans-36" d="M 2113 2584 
Q 1688 2584 1439 2293 
Q 1191 2003 1191 1497 
Q 1191 994 1439 701 
Q 1688 409 2113 409 
Q 2538 409 2786 701 
Q 3034 994 3034 1497 
Q 3034 2003 2786 2293 
Q 2538 2584 2113 2584 
z
M 3366 4563 
L 3366 3988 
Q 3128 4100 2886 4159 
Q 2644 4219 2406 4219 
Q 1781 4219 1451 3797 
Q 1122 3375 1075 2522 
Q 1259 2794 1537 2939 
Q 1816 3084 2150 3084 
Q 2853 3084 3261 2657 
Q 3669 2231 3669 1497 
Q 3669 778 3244 343 
Q 2819 -91 2113 -91 
Q 1303 -91 875 529 
Q 447 1150 447 2328 
Q 447 3434 972 4092 
Q 1497 4750 2381 4750 
Q 2619 4750 2861 4703 
Q 3103 4656 3366 4563 
z
" transform="scale(0.015625)"/>
       </defs>
       <use xlink:href="#DejaVuSans-35"/>
       <use xlink:href="#DejaVuSans-2e" x="63.623047"/>
       <use xlink:href="#DejaVuSans-36" x="95.410156"/>
      </g>
     </g>
    </g>
    <g id="ytick_2">
     <g id="line2d_4">
      <g>
       <use xlink:href="#maab263e0bc" x="27" y="283.36264" style="stroke: #000000; stroke-width: 0.8"/>
      </g>
     </g>
     <g id="text_5">
      <!-- 1.4 -->
      <g transform="translate(-19.757812 292.860687) scale(0.25 -0.25)">
       <defs>
        <path id="DejaVuSans-34" d="M 2419 4116 
L 825 1625 
L 2419 1625 
L 2419 4116 
z
M 2253 4666 
L 3047 4666 
L 3047 1625 
L 3713 1625 
L 3713 1100 
L 3047 1100 
L 3047 0 
L 2419 0 
L 2419 1100 
L 313 1100 
L 313 1709 
L 2253 4666 
z
" transform="scale(0.015625)"/>
       </defs>
       <use xlink:href="#DejaVuSans-31"/>
       <use xlink:href="#DejaVuSans-2e" x="63.623047"/>
       <use xlink:href="#DejaVuSans-34" x="95.410156"/>
      </g>
     </g>
    </g>
    <g id="text_6">
     <!-- V [x$10^{-2}$] -->
     <g transform="translate(-29.996875 252.6) rotate(-90) scale(0.3 -0.3)">
      <defs>
       <path id="DejaVuSans-56" d="M 1831 0 
L 50 4666 
L 709 4666 
L 2188 738 
L 3669 4666 
L 4325 4666 
L 2547 0 
L 1831 0 
z
" transform="scale(0.015625)"/>
       <path id="DejaVuSans-5b" d="M 550 4863 
L 1875 4863 
L 1875 4416 
L 1125 4416 
L 1125 -397 
L 1875 -397 
L 1875 -844 
L 550 -844 
L 550 4863 
z
" transform="scale(0.015625)"/>
       <path id="DejaVuSans-78" d="M 3513 3500 
L 2247 1797 
L 3578 0 
L 2900 0 
L 1881 1375 
L 863 0 
L 184 0 
L 1544 1831 
L 300 3500 
L 978 3500 
L 1906 2253 
L 2834 3500 
L 3513 3500 
z
" transform="scale(0.015625)"/>
       <path id="DejaVuSans-2212" d="M 678 2272 
L 4684 2272 
L 4684 1741 
L 678 1741 
L 678 2272 
z
" transform="scale(0.015625)"/>
       <path id="DejaVuSans-32" d="M 1228 531 
L 3431 531 
L 3431 0 
L 469 0 
L 469 531 
Q 828 903 1448 1529 
Q 2069 2156 2228 2338 
Q 2531 2678 2651 2914 
Q 2772 3150 2772 3378 
Q 2772 3750 2511 3984 
Q 2250 4219 1831 4219 
Q 1534 4219 1204 4116 
Q 875 4013 500 3803 
L 500 4441 
Q 881 4594 1212 4672 
Q 1544 4750 1819 4750 
Q 2544 4750 2975 4387 
Q 3406 4025 3406 3419 
Q 3406 3131 3298 2873 
Q 3191 2616 2906 2266 
Q 2828 2175 2409 1742 
Q 1991 1309 1228 531 
z
" transform="scale(0.015625)"/>
       <path id="DejaVuSans-5d" d="M 1947 4863 
L 1947 -844 
L 622 -844 
L 622 -397 
L 1369 -397 
L 1369 4416 
L 622 4416 
L 622 4863 
L 1947 4863 
z
" transform="scale(0.015625)"/>
      </defs>
      <use xlink:href="#DejaVuSans-56" transform="translate(0 0.765625)"/>
      <use xlink:href="#DejaVuSans-20" transform="translate(68.408203 0.765625)"/>
      <use xlink:href="#DejaVuSans-5b" transform="translate(100.195312 0.765625)"/>
      <use xlink:href="#DejaVuSans-78" transform="translate(139.208984 0.765625)"/>
      <use xlink:href="#DejaVuSans-31" transform="translate(198.388672 0.765625)"/>
      <use xlink:href="#DejaVuSans-30" transform="translate(262.011719 0.765625)"/>
      <use xlink:href="#DejaVuSans-2212" transform="translate(326.591797 39.046875) scale(0.7)"/>
      <use xlink:href="#DejaVuSans-32" transform="translate(385.244141 39.046875) scale(0.7)"/>
      <use xlink:href="#DejaVuSans-5d" transform="translate(432.514648 0.765625)"/>
     </g>
    </g>
   </g>
   <g id="patch_103">
    <path d="M 27 320.4 
L 27 43.2 
" style="fill: none; stroke: #000000; stroke-width: 0.8; stroke-linejoin: miter; stroke-linecap: square"/>
   </g>
   <g id="patch_104">
    <path d="M 194.4 320.4 
L 194.4 43.2 
" style="fill: none; stroke: #000000; stroke-width: 0.8; stroke-linejoin: miter; stroke-linecap: square"/>
   </g>
   <g id="patch_105">
    <path d="M 27 320.4 
L 194.4 320.4 
" style="fill: none; stroke: #000000; stroke-width: 0.8; stroke-linejoin: miter; stroke-linecap: square"/>
   </g>
   <g id="patch_106">
    <path d="M 27 43.2 
L 194.4 43.2 
" style="fill: none; stroke: #000000; stroke-width: 0.8; stroke-linejoin: miter; stroke-linecap: square"/>
   </g>
  </g>
 </g>
 <defs>
  <clipPath id="pd94169d28a">
   <rect x="27" y="43.2" width="167.4" height="277.2"/>
  </clipPath>
 </defs>
</svg>
