<?xml version="1.0" encoding="utf-8" standalone="no"?>
<!DOCTYPE svg PUBLIC "-//W3C//DTD SVG 1.1//EN"
  "http://www.w3.org/Graphics/SVG/1.1/DTD/svg11.dtd">
<svg xmlns:xlink="http://www.w3.org/1999/xlink" width="360pt" height="360pt" viewBox="0 0 360 360" xmlns="http://www.w3.org/2000/svg" version="1.1">
 <metadata>
  <rdf:RDF xmlns:dc="http://purl.org/dc/elements/1.1/" xmlns:cc="http://creativecommons.org/ns#" xmlns:rdf="http://www.w3.org/1999/02/22-rdf-syntax-ns#">
   <cc:Work>
    <dc:type rdf:resource="http://purl.org/dc/dcmitype/StillImage"/>
    <dc:date>2022-12-16T14:39:13.004565</dc:date>
    <dc:format>image/svg+xml</dc:format>
    <dc:creator>
     <cc:Agent>
      <dc:title>Matplotlib v3.6.2, https://matplotlib.org/</dc:title>
     </cc:Agent>
    </dc:creator>
   </cc:Work>
  </rdf:RDF>
 </metadata>
 <defs>
  <style type="text/css">*{stroke-linejoin: round; stroke-linecap: butt}</style>
 </defs>
 <g id="figure_1">
  <g id="patch_1">
   <path d="M 0 360 
L 360 360 
L 360 0 
L 0 0 
z
" style="fill: #ffffff"/>
  </g>
  <g id="axes_1">
   <g id="patch_2">
    <path d="M 45.9 320.4 
L 323.1 320.4 
L 323.1 43.2 
L 45.9 43.2 
z
" style="fill: #ffffff"/>
   </g>
   <g id="QuadMesh_1">
    <path d="M 45.9 43.2 
L 184.5 43.2 
L 184.5 181.8 
L 45.9 181.8 
L 45.9 43.2 
" clip-path="url(#p9dc69c1f02)" style="stroke: #ffffff; stroke-width: 0.5"/>
    <path d="M 184.5 43.2 
L 323.1 43.2 
L 323.1 181.8 
L 184.5 181.8 
L 184.5 43.2 
" clip-path="url(#p9dc69c1f02)" style="fill: #ffffff; stroke: #ffffff; stroke-width: 0.5"/>
    <path d="M 45.9 181.8 
L 184.5 181.8 
L 184.5 320.4 
L 45.9 320.4 
L 45.9 181.8 
" clip-path="url(#p9dc69c1f02)" style="fill: #fefefe; stroke: #ffffff; stroke-width: 0.5"/>
    <path d="M 184.5 181.8 
L 323.1 181.8 
L 323.1 320.4 
L 184.5 320.4 
L 184.5 181.8 
" clip-path="url(#p9dc69c1f02)" style="stroke: #ffffff; stroke-width: 0.5"/>
   </g>
   <g id="patch_3">
    <path d="M 115.2 -26.1 
C 122.55143 -26.1 129.602754 -23.179246 134.801 -17.981 
C 139.999246 -12.782754 142.92 -5.73143 142.92 1.62 
C 142.92 8.97143 139.999246 16.022754 134.801 21.221 
C 129.602754 26.419246 122.55143 29.34 115.2 29.34 
C 107.84857 29.34 100.797246 26.419246 95.599 21.221 
C 90.400754 16.022754 87.48 8.97143 87.48 1.62 
C 87.48 -5.73143 90.400754 -12.782754 95.599 -17.981 
C 100.797246 -23.179246 107.84857 -26.1 115.2 -26.1 
z
" style="fill: #8a8acf; stroke: #000000; stroke-width: 1.5; stroke-linejoin: miter"/>
   </g>
   <g id="patch_4">
    <path d="M 4.32 84.78 
C 11.67143 84.78 18.722754 87.700754 23.921 92.899 
C 29.119246 98.097246 32.04 105.14857 32.04 112.5 
C 32.04 119.85143 29.119246 126.902754 23.921 132.101 
C 18.722754 137.299246 11.67143 140.22 4.32 140.22 
C -3.03143 140.22 -10.082754 137.299246 -15.281 132.101 
C -20.479246 126.902754 -23.4 119.85143 -23.4 112.5 
C -23.4 105.14857 -20.479246 98.097246 -15.281 92.899 
C -10.082754 87.700754 -3.03143 84.78 4.32 84.78 
z
" style="fill: #8a8acf; stroke: #000000; stroke-width: 1.5; stroke-linejoin: miter"/>
   </g>
   <g id="patch_5">
    <path d="M 253.8 -26.1 
C 261.15143 -26.1 268.202754 -23.179246 273.401 -17.981 
C 278.599246 -12.782754 281.52 -5.73143 281.52 1.62 
C 281.52 8.97143 278.599246 16.022754 273.401 21.221 
C 268.202754 26.419246 261.15143 29.34 253.8 29.34 
C 246.44857 29.34 239.397246 26.419246 234.199 21.221 
C 229.000754 16.022754 226.08 8.97143 226.08 1.62 
C 226.08 -5.73143 229.000754 -12.782754 234.199 -17.981 
C 239.397246 -23.179246 246.44857 -26.1 253.8 -26.1 
z
" style="fill: #ff9d9d; stroke: #000000; stroke-width: 1.5; stroke-linejoin: miter"/>
   </g>
   <g id="patch_6">
    <path d="M 4.32 223.38 
C 11.67143 223.38 18.722754 226.300754 23.921 231.499 
C 29.119246 236.697246 32.04 243.74857 32.04 251.1 
C 32.04 258.45143 29.119246 265.502754 23.921 270.701 
C 18.722754 275.899246 11.67143 278.82 4.32 278.82 
C -3.03143 278.82 -10.082754 275.899246 -15.281 270.701 
C -20.479246 265.502754 -23.4 258.45143 -23.4 251.1 
C -23.4 243.74857 -20.479246 236.697246 -15.281 231.499 
C -10.082754 226.300754 -3.03143 223.38 4.32 223.38 
z
" style="fill: #ff9d9d; stroke: #000000; stroke-width: 1.5; stroke-linejoin: miter"/>
   </g>
   <g id="matplotlib.axis_1">
    <g id="xtick_1">
     <g id="line2d_1">
      <defs>
       <path id="mfe11c6701f" d="M 0 0 
L 0 -3.5 
" style="stroke: #000000; stroke-width: 0.8"/>
      </defs>
      <g>
       <use xlink:href="#mfe11c6701f" x="115.2" y="43.2" style="stroke: #000000; stroke-width: 0.8"/>
      </g>
     </g>
    </g>
    <g id="xtick_2">
     <g id="line2d_2">
      <g>
       <use xlink:href="#mfe11c6701f" x="253.8" y="43.2" style="stroke: #000000; stroke-width: 0.8"/>
      </g>
     </g>
    </g>
   </g>
   <g id="matplotlib.axis_2">
    <g id="ytick_1">
     <g id="line2d_3">
      <defs>
       <path id="me39d9bae8e" d="M 0 0 
L -3.5 0 
" style="stroke: #000000; stroke-width: 0.8"/>
      </defs>
      <g>
       <use xlink:href="#me39d9bae8e" x="45.9" y="112.5" style="stroke: #000000; stroke-width: 0.8"/>
      </g>
     </g>
    </g>
    <g id="ytick_2">
     <g id="line2d_4">
      <g>
       <use xlink:href="#me39d9bae8e" x="45.9" y="251.1" style="stroke: #000000; stroke-width: 0.8"/>
      </g>
     </g>
    </g>
   </g>
   <g id="patch_7">
    <path d="M 45.9 320.4 
L 45.9 43.2 
" style="fill: none; stroke: #000000; stroke-width: 0.8; stroke-linejoin: miter; stroke-linecap: square"/>
   </g>
   <g id="patch_8">
    <path d="M 323.1 320.4 
L 323.1 43.2 
" style="fill: none; stroke: #000000; stroke-width: 0.8; stroke-linejoin: miter; stroke-linecap: square"/>
   </g>
   <g id="patch_9">
    <path d="M 45.9 320.4 
L 323.1 320.4 
" style="fill: none; stroke: #000000; stroke-width: 0.8; stroke-linejoin: miter; stroke-linecap: square"/>
   </g>
   <g id="patch_10">
    <path d="M 45.9 43.2 
L 323.1 43.2 
" style="fill: none; stroke: #000000; stroke-width: 0.8; stroke-linejoin: miter; stroke-linecap: square"/>
   </g>
   <g id="text_1">
    <!-- 99.9 -->
    <g style="fill: #ffffff" transform="translate(89.594531 118.846562) scale(0.23 -0.23)">
     <defs>
      <path id="DejaVuSans-39" d="M 703 97 
L 703 672 
Q 941 559 1184 500 
Q 1428 441 1663 441 
Q 2288 441 2617 861 
Q 2947 1281 2994 2138 
Q 2813 1869 2534 1725 
Q 2256 1581 1919 1581 
Q 1219 1581 811 2004 
Q 403 2428 403 3163 
Q 403 3881 828 4315 
Q 1253 4750 1959 4750 
Q 2769 4750 3195 4129 
Q 3622 3509 3622 2328 
Q 3622 1225 3098 567 
Q 2575 -91 1691 -91 
Q 1453 -91 1209 -44 
Q 966 3 703 97 
z
M 1959 2075 
Q 2384 2075 2632 2365 
Q 2881 2656 2881 3163 
Q 2881 3666 2632 3958 
Q 2384 4250 1959 4250 
Q 1534 4250 1286 3958 
Q 1038 3666 1038 3163 
Q 1038 2656 1286 2365 
Q 1534 2075 1959 2075 
z
" transform="scale(0.015625)"/>
      <path id="DejaVuSans-2e" d="M 684 794 
L 1344 794 
L 1344 0 
L 684 0 
L 684 794 
z
" transform="scale(0.015625)"/>
     </defs>
     <use xlink:href="#DejaVuSans-39"/>
     <use xlink:href="#DejaVuSans-39" x="63.623047"/>
     <use xlink:href="#DejaVuSans-2e" x="127.246094"/>
     <use xlink:href="#DejaVuSans-39" x="159.033203"/>
    </g>
   </g>
   <g id="text_2">
    <!-- 0.1 -->
    <g style="fill: #262626" transform="translate(235.511406 118.846562) scale(0.23 -0.23)">
     <defs>
      <path id="DejaVuSans-30" d="M 2034 4250 
Q 1547 4250 1301 3770 
Q 1056 3291 1056 2328 
Q 1056 1369 1301 889 
Q 1547 409 2034 409 
Q 2525 409 2770 889 
Q 3016 1369 3016 2328 
Q 3016 3291 2770 3770 
Q 2525 4250 2034 4250 
z
M 2034 4750 
Q 2819 4750 3233 4129 
Q 3647 3509 3647 2328 
Q 3647 1150 3233 529 
Q 2819 -91 2034 -91 
Q 1250 -91 836 529 
Q 422 1150 422 2328 
Q 422 3509 836 4129 
Q 1250 4750 2034 4750 
z
" transform="scale(0.015625)"/>
      <path id="DejaVuSans-31" d="M 794 531 
L 1825 531 
L 1825 4091 
L 703 3866 
L 703 4441 
L 1819 4666 
L 2450 4666 
L 2450 531 
L 3481 531 
L 3481 0 
L 794 0 
L 794 531 
z
" transform="scale(0.015625)"/>
     </defs>
     <use xlink:href="#DejaVuSans-30"/>
     <use xlink:href="#DejaVuSans-2e" x="63.623047"/>
     <use xlink:href="#DejaVuSans-31" x="95.410156"/>
    </g>
   </g>
   <g id="text_3">
    <!-- 0.1 -->
    <g style="fill: #262626" transform="translate(96.911406 257.446562) scale(0.23 -0.23)">
     <use xlink:href="#DejaVuSans-30"/>
     <use xlink:href="#DejaVuSans-2e" x="63.623047"/>
     <use xlink:href="#DejaVuSans-31" x="95.410156"/>
    </g>
   </g>
   <g id="text_4">
    <!-- 99.9 -->
    <g style="fill: #ffffff" transform="translate(228.194531 257.446562) scale(0.23 -0.23)">
     <use xlink:href="#DejaVuSans-39"/>
     <use xlink:href="#DejaVuSans-39" x="63.623047"/>
     <use xlink:href="#DejaVuSans-2e" x="127.246094"/>
     <use xlink:href="#DejaVuSans-39" x="159.033203"/>
    </g>
   </g>
  </g>
 </g>
 <defs>
  <clipPath id="p9dc69c1f02">
   <rect x="45.9" y="43.2" width="277.2" height="277.2"/>
  </clipPath>
 </defs>
</svg>
