<?xml version="1.0" encoding="utf-8" standalone="no"?>
<!DOCTYPE svg PUBLIC "-//W3C//DTD SVG 1.1//EN"
  "http://www.w3.org/Graphics/SVG/1.1/DTD/svg11.dtd">
<svg xmlns:xlink="http://www.w3.org/1999/xlink" width="360pt" height="288pt" viewBox="0 0 360 288" xmlns="http://www.w3.org/2000/svg" version="1.1">
 <metadata>
  <rdf:RDF xmlns:dc="http://purl.org/dc/elements/1.1/" xmlns:cc="http://creativecommons.org/ns#" xmlns:rdf="http://www.w3.org/1999/02/22-rdf-syntax-ns#">
   <cc:Work>
    <dc:type rdf:resource="http://purl.org/dc/dcmitype/StillImage"/>
    <dc:date>2022-12-16T14:31:18.703674</dc:date>
    <dc:format>image/svg+xml</dc:format>
    <dc:creator>
     <cc:Agent>
      <dc:title>Matplotlib v3.6.2, https://matplotlib.org/</dc:title>
     </cc:Agent>
    </dc:creator>
   </cc:Work>
  </rdf:RDF>
 </metadata>
 <defs>
  <style type="text/css">*{stroke-linejoin: round; stroke-linecap: butt}</style>
 </defs>
 <g id="figure_1">
  <g id="patch_1">
   <path d="M 0 288 
L 360 288 
L 360 0 
L 0 0 
z
" style="fill: #ffffff"/>
  </g>
  <g id="axes_1">
   <g id="patch_2">
    <path d="M 45 256.32 
L 324 256.32 
L 324 34.56 
L 45 34.56 
z
" style="fill: #ffffff"/>
   </g>
   <g id="matplotlib.axis_1">
    <g id="xtick_1">
     <g id="line2d_1">
      <defs>
       <path id="m94dbf024e1" d="M 0 0 
L 0 3.5 
" style="stroke: #000000; stroke-width: 0.8"/>
      </defs>
      <g>
       <use xlink:href="#m94dbf024e1" x="45" y="256.32" style="stroke: #000000; stroke-width: 0.8"/>
      </g>
     </g>
     <g id="text_1">
      <!-- 0 -->
      <g transform="translate(38.6375 278.516875) scale(0.2 -0.2)">
       <defs>
        <path id="DejaVuSans-30" d="M 2034 4250 
Q 1547 4250 1301 3770 
Q 1056 3291 1056 2328 
Q 1056 1369 1301 889 
Q 1547 409 2034 409 
Q 2525 409 2770 889 
Q 3016 1369 3016 2328 
Q 3016 3291 2770 3770 
Q 2525 4250 2034 4250 
z
M 2034 4750 
Q 2819 4750 3233 4129 
Q 3647 3509 3647 2328 
Q 3647 1150 3233 529 
Q 2819 -91 2034 -91 
Q 1250 -91 836 529 
Q 422 1150 422 2328 
Q 422 3509 836 4129 
Q 1250 4750 2034 4750 
z
" transform="scale(0.015625)"/>
       </defs>
       <use xlink:href="#DejaVuSans-30"/>
      </g>
     </g>
    </g>
    <g id="xtick_2">
     <g id="line2d_2">
      <g>
       <use xlink:href="#m94dbf024e1" x="100.8" y="256.32" style="stroke: #000000; stroke-width: 0.8"/>
      </g>
     </g>
     <g id="text_2">
      <!-- 10 -->
      <g transform="translate(88.075 278.516875) scale(0.2 -0.2)">
       <defs>
        <path id="DejaVuSans-31" d="M 794 531 
L 1825 531 
L 1825 4091 
L 703 3866 
L 703 4441 
L 1819 4666 
L 2450 4666 
L 2450 531 
L 3481 531 
L 3481 0 
L 794 0 
L 794 531 
z
" transform="scale(0.015625)"/>
       </defs>
       <use xlink:href="#DejaVuSans-31"/>
       <use xlink:href="#DejaVuSans-30" x="63.623047"/>
      </g>
     </g>
    </g>
    <g id="xtick_3">
     <g id="line2d_3">
      <g>
       <use xlink:href="#m94dbf024e1" x="156.6" y="256.32" style="stroke: #000000; stroke-width: 0.8"/>
      </g>
     </g>
     <g id="text_3">
      <!-- 20 -->
      <g transform="translate(143.875 278.516875) scale(0.2 -0.2)">
       <defs>
        <path id="DejaVuSans-32" d="M 1228 531 
L 3431 531 
L 3431 0 
L 469 0 
L 469 531 
Q 828 903 1448 1529 
Q 2069 2156 2228 2338 
Q 2531 2678 2651 2914 
Q 2772 3150 2772 3378 
Q 2772 3750 2511 3984 
Q 2250 4219 1831 4219 
Q 1534 4219 1204 4116 
Q 875 4013 500 3803 
L 500 4441 
Q 881 4594 1212 4672 
Q 1544 4750 1819 4750 
Q 2544 4750 2975 4387 
Q 3406 4025 3406 3419 
Q 3406 3131 3298 2873 
Q 3191 2616 2906 2266 
Q 2828 2175 2409 1742 
Q 1991 1309 1228 531 
z
" transform="scale(0.015625)"/>
       </defs>
       <use xlink:href="#DejaVuSans-32"/>
       <use xlink:href="#DejaVuSans-30" x="63.623047"/>
      </g>
     </g>
    </g>
    <g id="xtick_4">
     <g id="line2d_4">
      <g>
       <use xlink:href="#m94dbf024e1" x="212.4" y="256.32" style="stroke: #000000; stroke-width: 0.8"/>
      </g>
     </g>
     <g id="text_4">
      <!-- 30 -->
      <g transform="translate(199.675 278.516875) scale(0.2 -0.2)">
       <defs>
        <path id="DejaVuSans-33" d="M 2597 2516 
Q 3050 2419 3304 2112 
Q 3559 1806 3559 1356 
Q 3559 666 3084 287 
Q 2609 -91 1734 -91 
Q 1441 -91 1130 -33 
Q 819 25 488 141 
L 488 750 
Q 750 597 1062 519 
Q 1375 441 1716 441 
Q 2309 441 2620 675 
Q 2931 909 2931 1356 
Q 2931 1769 2642 2001 
Q 2353 2234 1838 2234 
L 1294 2234 
L 1294 2753 
L 1863 2753 
Q 2328 2753 2575 2939 
Q 2822 3125 2822 3475 
Q 2822 3834 2567 4026 
Q 2313 4219 1838 4219 
Q 1578 4219 1281 4162 
Q 984 4106 628 3988 
L 628 4550 
Q 988 4650 1302 4700 
Q 1616 4750 1894 4750 
Q 2613 4750 3031 4423 
Q 3450 4097 3450 3541 
Q 3450 3153 3228 2886 
Q 3006 2619 2597 2516 
z
" transform="scale(0.015625)"/>
       </defs>
       <use xlink:href="#DejaVuSans-33"/>
       <use xlink:href="#DejaVuSans-30" x="63.623047"/>
      </g>
     </g>
    </g>
    <g id="xtick_5">
     <g id="line2d_5">
      <g>
       <use xlink:href="#m94dbf024e1" x="268.2" y="256.32" style="stroke: #000000; stroke-width: 0.8"/>
      </g>
     </g>
     <g id="text_5">
      <!-- 40 -->
      <g transform="translate(255.475 278.516875) scale(0.2 -0.2)">
       <defs>
        <path id="DejaVuSans-34" d="M 2419 4116 
L 825 1625 
L 2419 1625 
L 2419 4116 
z
M 2253 4666 
L 3047 4666 
L 3047 1625 
L 3713 1625 
L 3713 1100 
L 3047 1100 
L 3047 0 
L 2419 0 
L 2419 1100 
L 313 1100 
L 313 1709 
L 2253 4666 
z
" transform="scale(0.015625)"/>
       </defs>
       <use xlink:href="#DejaVuSans-34"/>
       <use xlink:href="#DejaVuSans-30" x="63.623047"/>
      </g>
     </g>
    </g>
    <g id="xtick_6">
     <g id="line2d_6">
      <g>
       <use xlink:href="#m94dbf024e1" x="324" y="256.32" style="stroke: #000000; stroke-width: 0.8"/>
      </g>
     </g>
     <g id="text_6">
      <!-- 50 -->
      <g transform="translate(311.275 278.516875) scale(0.2 -0.2)">
       <defs>
        <path id="DejaVuSans-35" d="M 691 4666 
L 3169 4666 
L 3169 4134 
L 1269 4134 
L 1269 2991 
Q 1406 3038 1543 3061 
Q 1681 3084 1819 3084 
Q 2600 3084 3056 2656 
Q 3513 2228 3513 1497 
Q 3513 744 3044 326 
Q 2575 -91 1722 -91 
Q 1428 -91 1123 -41 
Q 819 9 494 109 
L 494 744 
Q 775 591 1075 516 
Q 1375 441 1709 441 
Q 2250 441 2565 725 
Q 2881 1009 2881 1497 
Q 2881 1984 2565 2268 
Q 2250 2553 1709 2553 
Q 1456 2553 1204 2497 
Q 953 2441 691 2322 
L 691 4666 
z
" transform="scale(0.015625)"/>
       </defs>
       <use xlink:href="#DejaVuSans-35"/>
       <use xlink:href="#DejaVuSans-30" x="63.623047"/>
      </g>
     </g>
    </g>
    <g id="text_7">
     <!-- $r (\AA)$ -->
     <g transform="translate(161 308.227031) scale(0.25 -0.25)">
      <defs>
       <path id="DejaVuSans-Oblique-72" d="M 2853 2969 
Q 2766 3016 2653 3041 
Q 2541 3066 2413 3066 
Q 1953 3066 1609 2717 
Q 1266 2369 1153 1784 
L 800 0 
L 225 0 
L 909 3500 
L 1484 3500 
L 1375 2956 
Q 1603 3259 1920 3421 
Q 2238 3584 2597 3584 
Q 2691 3584 2781 3573 
Q 2872 3563 2963 3538 
L 2853 2969 
z
" transform="scale(0.015625)"/>
       <path id="DejaVuSans-28" d="M 1984 4856 
Q 1566 4138 1362 3434 
Q 1159 2731 1159 2009 
Q 1159 1288 1364 580 
Q 1569 -128 1984 -844 
L 1484 -844 
Q 1016 -109 783 600 
Q 550 1309 550 2009 
Q 550 2706 781 3412 
Q 1013 4119 1484 4856 
L 1984 4856 
z
" transform="scale(0.015625)"/>
       <path id="DejaVuSans-Oblique-c5" d="M 3188 5081 
Q 3188 5278 3048 5417 
Q 2909 5556 2713 5556 
Q 2513 5556 2377 5420 
Q 2241 5284 2241 5081 
Q 2241 4884 2377 4746 
Q 2513 4609 2713 4609 
Q 2909 4609 3048 4746 
Q 3188 4884 3188 5081 
z
M 2203 4397 
Q 2034 4513 1945 4689 
Q 1856 4866 1856 5081 
Q 1856 5438 2106 5689 
Q 2356 5941 2713 5941 
Q 3069 5941 3320 5689 
Q 3572 5438 3572 5081 
Q 3572 4834 3458 4643 
Q 3344 4453 3128 4341 
L 3938 0 
L 3278 0 
L 3084 1197 
L 984 1197 
L 325 0 
L -341 0 
L 2203 4397 
z
M 2584 4044 
L 1275 1722 
L 2988 1722 
L 2584 4044 
z
" transform="scale(0.015625)"/>
       <path id="DejaVuSans-29" d="M 513 4856 
L 1013 4856 
Q 1481 4119 1714 3412 
Q 1947 2706 1947 2009 
Q 1947 1309 1714 600 
Q 1481 -109 1013 -844 
L 513 -844 
Q 928 -128 1133 580 
Q 1338 1288 1338 2009 
Q 1338 2731 1133 3434 
Q 928 4138 513 4856 
z
" transform="scale(0.015625)"/>
      </defs>
      <use xlink:href="#DejaVuSans-Oblique-72" transform="translate(0 0.171875)"/>
      <use xlink:href="#DejaVuSans-28" transform="translate(41.113281 0.171875)"/>
      <use xlink:href="#DejaVuSans-Oblique-c5" transform="translate(80.126953 0.171875)"/>
      <use xlink:href="#DejaVuSans-29" transform="translate(148.535156 0.171875)"/>
     </g>
    </g>
   </g>
   <g id="matplotlib.axis_2">
    <g id="text_8">
     <!-- $g(r)$ -->
     <g transform="translate(32.25 168.315) rotate(-90) scale(0.25 -0.25)">
      <defs>
       <path id="DejaVuSans-Oblique-67" d="M 3816 3500 
L 3219 434 
Q 3047 -456 2561 -893 
Q 2075 -1331 1253 -1331 
Q 950 -1331 690 -1286 
Q 431 -1241 206 -1147 
L 313 -588 
Q 525 -725 762 -790 
Q 1000 -856 1269 -856 
Q 1816 -856 2167 -557 
Q 2519 -259 2631 300 
L 2681 563 
Q 2441 288 2122 144 
Q 1803 0 1434 0 
Q 903 0 598 351 
Q 294 703 294 1319 
Q 294 1803 478 2267 
Q 663 2731 997 3091 
Q 1219 3328 1514 3456 
Q 1809 3584 2131 3584 
Q 2484 3584 2746 3420 
Q 3009 3256 3138 2956 
L 3238 3500 
L 3816 3500 
z
M 2950 2216 
Q 2950 2641 2750 2872 
Q 2550 3103 2181 3103 
Q 1953 3103 1747 3012 
Q 1541 2922 1394 2759 
Q 1156 2491 1023 2127 
Q 891 1763 891 1375 
Q 891 944 1092 712 
Q 1294 481 1672 481 
Q 2219 481 2584 976 
Q 2950 1472 2950 2216 
z
" transform="scale(0.015625)"/>
      </defs>
      <use xlink:href="#DejaVuSans-Oblique-67" transform="translate(0 0.125)"/>
      <use xlink:href="#DejaVuSans-28" transform="translate(63.476562 0.125)"/>
      <use xlink:href="#DejaVuSans-Oblique-72" transform="translate(102.490234 0.125)"/>
      <use xlink:href="#DejaVuSans-29" transform="translate(143.603516 0.125)"/>
     </g>
    </g>
   </g>
   <g id="line2d_7">
    <path d="M 45.6975 246.24 
L 68.0175 246.24 
L 69.4125 245.895097 
L 70.8075 228.725637 
L 73.5975 44.64 
L 74.9925 47.898502 
L 76.3875 84.028117 
L 77.7825 128.392651 
L 79.1775 153.808533 
L 80.5725 172.837302 
L 81.9675 180.958741 
L 83.3625 186.145195 
L 84.7575 184.036711 
L 86.1525 179.181704 
L 87.5475 167.987514 
L 88.9425 154.44442 
L 90.3375 134.830882 
L 93.1275 108.487806 
L 94.5225 107.492931 
L 95.9175 110.508454 
L 97.3125 121.748426 
L 98.7075 130.008283 
L 101.4975 154.262225 
L 102.8925 170.479424 
L 104.2875 183.672443 
L 105.6825 195.497668 
L 107.0775 202.88775 
L 108.4725 207.381075 
L 109.8675 208.876873 
L 111.2625 208.758834 
L 112.6575 206.051053 
L 114.0525 202.286643 
L 115.4475 196.962392 
L 116.8425 192.844616 
L 118.2375 188.214486 
L 119.6325 185.933598 
L 121.0275 184.118823 
L 122.4225 185.472022 
L 123.8175 185.863315 
L 125.2125 189.062159 
L 126.6075 190.668163 
L 128.0025 193.805732 
L 129.3975 195.925611 
L 130.7925 198.396687 
L 133.5825 201.258476 
L 134.9775 201.206391 
L 136.3725 201.376993 
L 137.7675 200.459779 
L 139.1625 199.766529 
L 140.5575 198.718389 
L 143.3475 198.758904 
L 146.1375 201.20842 
L 147.5325 203.326009 
L 148.9275 205.042853 
L 150.3225 207.214523 
L 153.1125 210.652906 
L 154.5075 211.489412 
L 155.9025 212.652251 
L 157.2975 212.818659 
L 158.6925 213.292398 
L 160.0875 212.854961 
L 161.4825 212.567654 
L 162.8775 211.868001 
L 164.2725 211.618319 
L 165.6675 210.7047 
L 167.0625 210.552384 
L 168.4575 210.133932 
L 169.8525 210.720422 
L 171.2475 210.807598 
L 172.6425 211.698914 
L 174.0375 212.400256 
L 175.4325 213.405457 
L 176.8275 213.941888 
L 178.2225 214.915859 
L 183.8025 216.617452 
L 185.1975 216.491675 
L 186.5925 216.870349 
L 187.9875 216.643493 
L 189.3825 216.890679 
L 190.7775 216.972234 
L 192.1725 217.457328 
L 193.5675 217.50662 
L 194.9625 218.166317 
L 196.3575 218.430371 
L 197.7525 218.947509 
L 199.1475 219.278175 
L 200.5425 219.866774 
L 201.9375 220.008089 
L 203.3325 220.608802 
L 204.7275 220.605618 
L 206.1225 220.948607 
L 207.5175 220.822342 
L 208.9125 220.952919 
L 210.3075 220.855901 
L 211.7025 220.973856 
L 213.0975 220.818315 
L 214.4925 221.034856 
L 215.8875 220.926234 
L 217.2825 221.231477 
L 218.6775 221.233684 
L 220.0725 221.616622 
L 221.4675 221.71272 
L 222.8625 222.082725 
L 224.2575 222.212403 
L 225.6525 222.546629 
L 227.0475 222.540021 
L 228.4425 222.833561 
L 234.0225 222.864944 
L 235.4175 222.673943 
L 236.8125 222.717884 
L 238.2075 222.615575 
L 239.6025 222.631747 
L 240.9975 222.470947 
L 242.3925 222.595971 
L 243.7875 222.34187 
L 245.1825 222.54318 
L 246.5775 222.3682 
L 247.9725 222.476137 
L 249.3675 222.353952 
L 250.7625 222.407224 
L 254.9475 222.184446 
L 259.1325 222.026189 
L 260.5275 221.836292 
L 261.9225 221.936121 
L 263.3175 221.787552 
L 264.7125 221.915475 
L 266.1075 221.787113 
L 267.5025 221.942679 
L 268.8975 221.875402 
L 270.2925 222.012037 
L 271.6875 222.001754 
L 273.0825 222.116996 
L 274.4775 222.094935 
L 275.8725 222.233536 
L 277.2675 222.082801 
L 278.6625 222.30913 
L 280.0575 222.142554 
L 281.4525 222.271159 
L 282.8475 222.140975 
L 284.2425 222.261252 
L 285.6375 222.158935 
L 287.0325 222.178204 
L 288.4275 222.059727 
L 289.8225 222.127529 
L 291.2175 221.96074 
L 292.6125 222.041968 
L 294.0075 221.810507 
L 295.4025 221.772763 
L 299.5875 221.199151 
L 300.9825 221.025947 
L 302.3775 220.677482 
L 303.7725 220.514237 
L 305.1675 220.083227 
L 306.5625 219.900311 
L 307.9575 219.478247 
L 309.3525 219.328555 
L 310.7475 218.896141 
L 312.1425 218.766783 
L 313.5375 218.362143 
L 314.9325 218.249751 
L 316.3275 217.899233 
L 317.7225 217.792112 
L 319.1175 217.479526 
L 320.5125 217.473822 
L 321.9075 217.290167 
L 323.3025 217.271652 
L 323.3025 217.271652 
" clip-path="url(#p750bb52158)" style="fill: none; stroke: #1f77b4; stroke-width: 2; stroke-linecap: square"/>
   </g>
   <g id="LineCollection_1">
    <path d="M 134.28 246.24 
L 134.28 44.64 
" clip-path="url(#p750bb52158)" style="fill: none; stroke: #ff0000; stroke-width: 2"/>
   </g>
   <g id="patch_3">
    <path d="M 45 256.32 
L 45 34.56 
" style="fill: none; stroke: #000000; stroke-width: 0.8; stroke-linejoin: miter; stroke-linecap: square"/>
   </g>
   <g id="patch_4">
    <path d="M 324 256.32 
L 324 34.56 
" style="fill: none; stroke: #000000; stroke-width: 0.8; stroke-linejoin: miter; stroke-linecap: square"/>
   </g>
   <g id="patch_5">
    <path d="M 45 256.32 
L 324 256.32 
" style="fill: none; stroke: #000000; stroke-width: 0.8; stroke-linejoin: miter; stroke-linecap: square"/>
   </g>
   <g id="patch_6">
    <path d="M 45 34.56 
L 324 34.56 
" style="fill: none; stroke: #000000; stroke-width: 0.8; stroke-linejoin: miter; stroke-linecap: square"/>
   </g>
   <g id="text_9">
    <!-- DIPC/DPPC   r$_{cut}$ = $16 (\AA)$  -->
    <g transform="translate(29.25 28.56) scale(0.25 -0.25)">
     <defs>
      <path id="DejaVuSans-44" d="M 1259 4147 
L 1259 519 
L 2022 519 
Q 2988 519 3436 956 
Q 3884 1394 3884 2338 
Q 3884 3275 3436 3711 
Q 2988 4147 2022 4147 
L 1259 4147 
z
M 628 4666 
L 1925 4666 
Q 3281 4666 3915 4102 
Q 4550 3538 4550 2338 
Q 4550 1131 3912 565 
Q 3275 0 1925 0 
L 628 0 
L 628 4666 
z
" transform="scale(0.015625)"/>
      <path id="DejaVuSans-49" d="M 628 4666 
L 1259 4666 
L 1259 0 
L 628 0 
L 628 4666 
z
" transform="scale(0.015625)"/>
      <path id="DejaVuSans-50" d="M 1259 4147 
L 1259 2394 
L 2053 2394 
Q 2494 2394 2734 2622 
Q 2975 2850 2975 3272 
Q 2975 3691 2734 3919 
Q 2494 4147 2053 4147 
L 1259 4147 
z
M 628 4666 
L 2053 4666 
Q 2838 4666 3239 4311 
Q 3641 3956 3641 3272 
Q 3641 2581 3239 2228 
Q 2838 1875 2053 1875 
L 1259 1875 
L 1259 0 
L 628 0 
L 628 4666 
z
" transform="scale(0.015625)"/>
      <path id="DejaVuSans-43" d="M 4122 4306 
L 4122 3641 
Q 3803 3938 3442 4084 
Q 3081 4231 2675 4231 
Q 1875 4231 1450 3742 
Q 1025 3253 1025 2328 
Q 1025 1406 1450 917 
Q 1875 428 2675 428 
Q 3081 428 3442 575 
Q 3803 722 4122 1019 
L 4122 359 
Q 3791 134 3420 21 
Q 3050 -91 2638 -91 
Q 1578 -91 968 557 
Q 359 1206 359 2328 
Q 359 3453 968 4101 
Q 1578 4750 2638 4750 
Q 3056 4750 3426 4639 
Q 3797 4528 4122 4306 
z
" transform="scale(0.015625)"/>
      <path id="DejaVuSans-2f" d="M 1625 4666 
L 2156 4666 
L 531 -594 
L 0 -594 
L 1625 4666 
z
" transform="scale(0.015625)"/>
      <path id="DejaVuSans-20" transform="scale(0.015625)"/>
      <path id="DejaVuSans-72" d="M 2631 2963 
Q 2534 3019 2420 3045 
Q 2306 3072 2169 3072 
Q 1681 3072 1420 2755 
Q 1159 2438 1159 1844 
L 1159 0 
L 581 0 
L 581 3500 
L 1159 3500 
L 1159 2956 
Q 1341 3275 1631 3429 
Q 1922 3584 2338 3584 
Q 2397 3584 2469 3576 
Q 2541 3569 2628 3553 
L 2631 2963 
z
" transform="scale(0.015625)"/>
      <path id="DejaVuSans-Oblique-63" d="M 3431 3366 
L 3316 2797 
Q 3109 2947 2876 3022 
Q 2644 3097 2394 3097 
Q 2119 3097 1870 3000 
Q 1622 2903 1453 2725 
Q 1184 2453 1037 2087 
Q 891 1722 891 1331 
Q 891 859 1127 628 
Q 1363 397 1844 397 
Q 2081 397 2348 469 
Q 2616 541 2906 684 
L 2797 116 
Q 2547 13 2283 -39 
Q 2019 -91 1741 -91 
Q 1044 -91 669 257 
Q 294 606 294 1253 
Q 294 1797 489 2255 
Q 684 2713 1069 3078 
Q 1331 3328 1684 3456 
Q 2038 3584 2456 3584 
Q 2700 3584 2940 3529 
Q 3181 3475 3431 3366 
z
" transform="scale(0.015625)"/>
      <path id="DejaVuSans-Oblique-75" d="M 428 1388 
L 838 3500 
L 1416 3500 
L 1006 1409 
Q 975 1256 961 1147 
Q 947 1038 947 966 
Q 947 700 1109 554 
Q 1272 409 1569 409 
Q 2031 409 2368 721 
Q 2706 1034 2809 1563 
L 3194 3500 
L 3769 3500 
L 3091 0 
L 2516 0 
L 2631 550 
Q 2388 244 2052 76 
Q 1716 -91 1338 -91 
Q 878 -91 622 161 
Q 366 413 366 863 
Q 366 956 381 1097 
Q 397 1238 428 1388 
z
" transform="scale(0.015625)"/>
      <path id="DejaVuSans-Oblique-74" d="M 2706 3500 
L 2619 3053 
L 1472 3053 
L 1100 1153 
Q 1081 1047 1072 975 
Q 1063 903 1063 863 
Q 1063 663 1183 572 
Q 1303 481 1569 481 
L 2150 481 
L 2053 0 
L 1503 0 
Q 991 0 739 200 
Q 488 400 488 806 
Q 488 878 497 964 
Q 506 1050 525 1153 
L 897 3053 
L 409 3053 
L 500 3500 
L 978 3500 
L 1172 4494 
L 1747 4494 
L 1556 3500 
L 2706 3500 
z
" transform="scale(0.015625)"/>
      <path id="DejaVuSans-3d" d="M 678 2906 
L 4684 2906 
L 4684 2381 
L 678 2381 
L 678 2906 
z
M 678 1631 
L 4684 1631 
L 4684 1100 
L 678 1100 
L 678 1631 
z
" transform="scale(0.015625)"/>
      <path id="DejaVuSans-36" d="M 2113 2584 
Q 1688 2584 1439 2293 
Q 1191 2003 1191 1497 
Q 1191 994 1439 701 
Q 1688 409 2113 409 
Q 2538 409 2786 701 
Q 3034 994 3034 1497 
Q 3034 2003 2786 2293 
Q 2538 2584 2113 2584 
z
M 3366 4563 
L 3366 3988 
Q 3128 4100 2886 4159 
Q 2644 4219 2406 4219 
Q 1781 4219 1451 3797 
Q 1122 3375 1075 2522 
Q 1259 2794 1537 2939 
Q 1816 3084 2150 3084 
Q 2853 3084 3261 2657 
Q 3669 2231 3669 1497 
Q 3669 778 3244 343 
Q 2819 -91 2113 -91 
Q 1303 -91 875 529 
Q 447 1150 447 2328 
Q 447 3434 972 4092 
Q 1497 4750 2381 4750 
Q 2619 4750 2861 4703 
Q 3103 4656 3366 4563 
z
" transform="scale(0.015625)"/>
     </defs>
     <use xlink:href="#DejaVuSans-44" transform="translate(0 0.171875)"/>
     <use xlink:href="#DejaVuSans-49" transform="translate(77.001953 0.171875)"/>
     <use xlink:href="#DejaVuSans-50" transform="translate(106.494141 0.171875)"/>
     <use xlink:href="#DejaVuSans-43" transform="translate(166.796875 0.171875)"/>
     <use xlink:href="#DejaVuSans-2f" transform="translate(236.621094 0.171875)"/>
     <use xlink:href="#DejaVuSans-44" transform="translate(270.3125 0.171875)"/>
     <use xlink:href="#DejaVuSans-50" transform="translate(347.314453 0.171875)"/>
     <use xlink:href="#DejaVuSans-50" transform="translate(407.617188 0.171875)"/>
     <use xlink:href="#DejaVuSans-43" transform="translate(467.919922 0.171875)"/>
     <use xlink:href="#DejaVuSans-20" transform="translate(537.744141 0.171875)"/>
     <use xlink:href="#DejaVuSans-20" transform="translate(569.53125 0.171875)"/>
     <use xlink:href="#DejaVuSans-20" transform="translate(601.318359 0.171875)"/>
     <use xlink:href="#DejaVuSans-72" transform="translate(633.105469 0.171875)"/>
     <use xlink:href="#DejaVuSans-Oblique-63" transform="translate(675.175781 -16.234375) scale(0.7)"/>
     <use xlink:href="#DejaVuSans-Oblique-75" transform="translate(713.662109 -16.234375) scale(0.7)"/>
     <use xlink:href="#DejaVuSans-Oblique-74" transform="translate(758.027344 -16.234375) scale(0.7)"/>
     <use xlink:href="#DejaVuSans-20" transform="translate(788.208008 0.171875)"/>
     <use xlink:href="#DejaVuSans-3d" transform="translate(819.995117 0.171875)"/>
     <use xlink:href="#DejaVuSans-20" transform="translate(903.78418 0.171875)"/>
     <use xlink:href="#DejaVuSans-31" transform="translate(935.571289 0.171875)"/>
     <use xlink:href="#DejaVuSans-36" transform="translate(999.194336 0.171875)"/>
     <use xlink:href="#DejaVuSans-28" transform="translate(1062.817383 0.171875)"/>
     <use xlink:href="#DejaVuSans-Oblique-c5" transform="translate(1101.831055 0.171875)"/>
     <use xlink:href="#DejaVuSans-29" transform="translate(1170.239258 0.171875)"/>
     <use xlink:href="#DejaVuSans-20" transform="translate(1209.25293 0.171875)"/>
    </g>
   </g>
  </g>
 </g>
 <defs>
  <clipPath id="p750bb52158">
   <rect x="45" y="34.56" width="279" height="221.76"/>
  </clipPath>
 </defs>
</svg>
