<?xml version="1.0" encoding="utf-8" standalone="no"?>
<!DOCTYPE svg PUBLIC "-//W3C//DTD SVG 1.1//EN"
  "http://www.w3.org/Graphics/SVG/1.1/DTD/svg11.dtd">
<svg xmlns:xlink="http://www.w3.org/1999/xlink" width="288pt" height="144pt" viewBox="0 0 288 144" xmlns="http://www.w3.org/2000/svg" version="1.1">
 <metadata>
  <rdf:RDF xmlns:dc="http://purl.org/dc/elements/1.1/" xmlns:cc="http://creativecommons.org/ns#" xmlns:rdf="http://www.w3.org/1999/02/22-rdf-syntax-ns#">
   <cc:Work>
    <dc:type rdf:resource="http://purl.org/dc/dcmitype/StillImage"/>
    <dc:date>2022-12-16T14:38:29.137215</dc:date>
    <dc:format>image/svg+xml</dc:format>
    <dc:creator>
     <cc:Agent>
      <dc:title>Matplotlib v3.6.2, https://matplotlib.org/</dc:title>
     </cc:Agent>
    </dc:creator>
   </cc:Work>
  </rdf:RDF>
 </metadata>
 <defs>
  <style type="text/css">*{stroke-linejoin: round; stroke-linecap: butt}</style>
 </defs>
 <g id="figure_1">
  <g id="patch_1">
   <path d="M 0 144 
L 288 144 
L 288 0 
L 0 0 
z
" style="fill: #ffffff"/>
  </g>
  <g id="axes_1">
   <g id="patch_2">
    <path d="M 36 128.16 
L 259.2 128.16 
L 259.2 17.28 
L 36 17.28 
z
" style="fill: #ffffff"/>
   </g>
   <g id="matplotlib.axis_1">
    <g id="xtick_1">
     <g id="line2d_1">
      <defs>
       <path id="mfa7070298e" d="M 0 0 
L 0 3.5 
" style="stroke: #000000; stroke-width: 0.8"/>
      </defs>
      <g>
       <use xlink:href="#mfa7070298e" x="38.188235" y="128.16" style="stroke: #000000; stroke-width: 0.8"/>
      </g>
     </g>
     <g id="text_1">
      <!-- 0 -->
      <g transform="translate(31.825735 150.356875) scale(0.2 -0.2)">
       <defs>
        <path id="DejaVuSans-30" d="M 2034 4250 
Q 1547 4250 1301 3770 
Q 1056 3291 1056 2328 
Q 1056 1369 1301 889 
Q 1547 409 2034 409 
Q 2525 409 2770 889 
Q 3016 1369 3016 2328 
Q 3016 3291 2770 3770 
Q 2525 4250 2034 4250 
z
M 2034 4750 
Q 2819 4750 3233 4129 
Q 3647 3509 3647 2328 
Q 3647 1150 3233 529 
Q 2819 -91 2034 -91 
Q 1250 -91 836 529 
Q 422 1150 422 2328 
Q 422 3509 836 4129 
Q 1250 4750 2034 4750 
z
" transform="scale(0.015625)"/>
       </defs>
       <use xlink:href="#DejaVuSans-30"/>
      </g>
     </g>
    </g>
    <g id="xtick_2">
     <g id="line2d_2">
      <g>
       <use xlink:href="#mfa7070298e" x="81.952941" y="128.16" style="stroke: #000000; stroke-width: 0.8"/>
      </g>
     </g>
     <g id="text_2">
      <!-- 2 -->
      <g transform="translate(75.590441 150.356875) scale(0.2 -0.2)">
       <defs>
        <path id="DejaVuSans-32" d="M 1228 531 
L 3431 531 
L 3431 0 
L 469 0 
L 469 531 
Q 828 903 1448 1529 
Q 2069 2156 2228 2338 
Q 2531 2678 2651 2914 
Q 2772 3150 2772 3378 
Q 2772 3750 2511 3984 
Q 2250 4219 1831 4219 
Q 1534 4219 1204 4116 
Q 875 4013 500 3803 
L 500 4441 
Q 881 4594 1212 4672 
Q 1544 4750 1819 4750 
Q 2544 4750 2975 4387 
Q 3406 4025 3406 3419 
Q 3406 3131 3298 2873 
Q 3191 2616 2906 2266 
Q 2828 2175 2409 1742 
Q 1991 1309 1228 531 
z
" transform="scale(0.015625)"/>
       </defs>
       <use xlink:href="#DejaVuSans-32"/>
      </g>
     </g>
    </g>
    <g id="xtick_3">
     <g id="line2d_3">
      <g>
       <use xlink:href="#mfa7070298e" x="125.717647" y="128.16" style="stroke: #000000; stroke-width: 0.8"/>
      </g>
     </g>
     <g id="text_3">
      <!-- 4 -->
      <g transform="translate(119.355147 150.356875) scale(0.2 -0.2)">
       <defs>
        <path id="DejaVuSans-34" d="M 2419 4116 
L 825 1625 
L 2419 1625 
L 2419 4116 
z
M 2253 4666 
L 3047 4666 
L 3047 1625 
L 3713 1625 
L 3713 1100 
L 3047 1100 
L 3047 0 
L 2419 0 
L 2419 1100 
L 313 1100 
L 313 1709 
L 2253 4666 
z
" transform="scale(0.015625)"/>
       </defs>
       <use xlink:href="#DejaVuSans-34"/>
      </g>
     </g>
    </g>
    <g id="xtick_4">
     <g id="line2d_4">
      <g>
       <use xlink:href="#mfa7070298e" x="169.482353" y="128.16" style="stroke: #000000; stroke-width: 0.8"/>
      </g>
     </g>
     <g id="text_4">
      <!-- 6 -->
      <g transform="translate(163.119853 150.356875) scale(0.2 -0.2)">
       <defs>
        <path id="DejaVuSans-36" d="M 2113 2584 
Q 1688 2584 1439 2293 
Q 1191 2003 1191 1497 
Q 1191 994 1439 701 
Q 1688 409 2113 409 
Q 2538 409 2786 701 
Q 3034 994 3034 1497 
Q 3034 2003 2786 2293 
Q 2538 2584 2113 2584 
z
M 3366 4563 
L 3366 3988 
Q 3128 4100 2886 4159 
Q 2644 4219 2406 4219 
Q 1781 4219 1451 3797 
Q 1122 3375 1075 2522 
Q 1259 2794 1537 2939 
Q 1816 3084 2150 3084 
Q 2853 3084 3261 2657 
Q 3669 2231 3669 1497 
Q 3669 778 3244 343 
Q 2819 -91 2113 -91 
Q 1303 -91 875 529 
Q 447 1150 447 2328 
Q 447 3434 972 4092 
Q 1497 4750 2381 4750 
Q 2619 4750 2861 4703 
Q 3103 4656 3366 4563 
z
" transform="scale(0.015625)"/>
       </defs>
       <use xlink:href="#DejaVuSans-36"/>
      </g>
     </g>
    </g>
    <g id="xtick_5">
     <g id="line2d_5">
      <g>
       <use xlink:href="#mfa7070298e" x="213.247059" y="128.16" style="stroke: #000000; stroke-width: 0.8"/>
      </g>
     </g>
     <g id="text_5">
      <!-- 8 -->
      <g transform="translate(206.884559 150.356875) scale(0.2 -0.2)">
       <defs>
        <path id="DejaVuSans-38" d="M 2034 2216 
Q 1584 2216 1326 1975 
Q 1069 1734 1069 1313 
Q 1069 891 1326 650 
Q 1584 409 2034 409 
Q 2484 409 2743 651 
Q 3003 894 3003 1313 
Q 3003 1734 2745 1975 
Q 2488 2216 2034 2216 
z
M 1403 2484 
Q 997 2584 770 2862 
Q 544 3141 544 3541 
Q 544 4100 942 4425 
Q 1341 4750 2034 4750 
Q 2731 4750 3128 4425 
Q 3525 4100 3525 3541 
Q 3525 3141 3298 2862 
Q 3072 2584 2669 2484 
Q 3125 2378 3379 2068 
Q 3634 1759 3634 1313 
Q 3634 634 3220 271 
Q 2806 -91 2034 -91 
Q 1263 -91 848 271 
Q 434 634 434 1313 
Q 434 1759 690 2068 
Q 947 2378 1403 2484 
z
M 1172 3481 
Q 1172 3119 1398 2916 
Q 1625 2713 2034 2713 
Q 2441 2713 2670 2916 
Q 2900 3119 2900 3481 
Q 2900 3844 2670 4047 
Q 2441 4250 2034 4250 
Q 1625 4250 1398 4047 
Q 1172 3844 1172 3481 
z
" transform="scale(0.015625)"/>
       </defs>
       <use xlink:href="#DejaVuSans-38"/>
      </g>
     </g>
    </g>
    <g id="xtick_6">
     <g id="line2d_6">
      <g>
       <use xlink:href="#mfa7070298e" x="257.011765" y="128.16" style="stroke: #000000; stroke-width: 0.8"/>
      </g>
     </g>
     <g id="text_6">
      <!-- 10 -->
      <g transform="translate(244.286765 150.356875) scale(0.2 -0.2)">
       <defs>
        <path id="DejaVuSans-31" d="M 794 531 
L 1825 531 
L 1825 4091 
L 703 3866 
L 703 4441 
L 1819 4666 
L 2450 4666 
L 2450 531 
L 3481 531 
L 3481 0 
L 794 0 
L 794 531 
z
" transform="scale(0.015625)"/>
       </defs>
       <use xlink:href="#DejaVuSans-31"/>
       <use xlink:href="#DejaVuSans-30" x="63.623047"/>
      </g>
     </g>
    </g>
    <g id="text_7">
     <!-- t [$\mu$s] -->
     <g transform="translate(121.1 173.71625) scale(0.2 -0.2)">
      <defs>
       <path id="DejaVuSans-74" d="M 1172 4494 
L 1172 3500 
L 2356 3500 
L 2356 3053 
L 1172 3053 
L 1172 1153 
Q 1172 725 1289 603 
Q 1406 481 1766 481 
L 2356 481 
L 2356 0 
L 1766 0 
Q 1100 0 847 248 
Q 594 497 594 1153 
L 594 3053 
L 172 3053 
L 172 3500 
L 594 3500 
L 594 4494 
L 1172 4494 
z
" transform="scale(0.015625)"/>
       <path id="DejaVuSans-20" transform="scale(0.015625)"/>
       <path id="DejaVuSans-5b" d="M 550 4863 
L 1875 4863 
L 1875 4416 
L 1125 4416 
L 1125 -397 
L 1875 -397 
L 1875 -844 
L 550 -844 
L 550 4863 
z
" transform="scale(0.015625)"/>
       <path id="DejaVuSans-Oblique-3bc" d="M -84 -1331 
L 856 3500 
L 1434 3500 
L 1009 1322 
Q 997 1256 987 1175 
Q 978 1094 978 1013 
Q 978 722 1161 565 
Q 1344 409 1684 409 
Q 2147 409 2431 671 
Q 2716 934 2816 1459 
L 3213 3500 
L 3788 3500 
L 3266 809 
Q 3253 750 3248 706 
Q 3244 663 3244 628 
Q 3244 531 3283 486 
Q 3322 441 3406 441 
Q 3438 441 3492 456 
Q 3547 472 3647 513 
L 3559 50 
Q 3422 -19 3297 -55 
Q 3172 -91 3053 -91 
Q 2847 -91 2730 40 
Q 2613 172 2613 403 
Q 2438 153 2195 31 
Q 1953 -91 1625 -91 
Q 1334 -91 1117 43 
Q 900 178 831 397 
L 494 -1331 
L -84 -1331 
z
" transform="scale(0.015625)"/>
       <path id="DejaVuSans-73" d="M 2834 3397 
L 2834 2853 
Q 2591 2978 2328 3040 
Q 2066 3103 1784 3103 
Q 1356 3103 1142 2972 
Q 928 2841 928 2578 
Q 928 2378 1081 2264 
Q 1234 2150 1697 2047 
L 1894 2003 
Q 2506 1872 2764 1633 
Q 3022 1394 3022 966 
Q 3022 478 2636 193 
Q 2250 -91 1575 -91 
Q 1294 -91 989 -36 
Q 684 19 347 128 
L 347 722 
Q 666 556 975 473 
Q 1284 391 1588 391 
Q 1994 391 2212 530 
Q 2431 669 2431 922 
Q 2431 1156 2273 1281 
Q 2116 1406 1581 1522 
L 1381 1569 
Q 847 1681 609 1914 
Q 372 2147 372 2553 
Q 372 3047 722 3315 
Q 1072 3584 1716 3584 
Q 2034 3584 2315 3537 
Q 2597 3491 2834 3397 
z
" transform="scale(0.015625)"/>
       <path id="DejaVuSans-5d" d="M 1947 4863 
L 1947 -844 
L 622 -844 
L 622 -397 
L 1369 -397 
L 1369 4416 
L 622 4416 
L 622 4863 
L 1947 4863 
z
" transform="scale(0.015625)"/>
      </defs>
      <use xlink:href="#DejaVuSans-74" transform="translate(0 0.015625)"/>
      <use xlink:href="#DejaVuSans-20" transform="translate(39.208984 0.015625)"/>
      <use xlink:href="#DejaVuSans-5b" transform="translate(70.996094 0.015625)"/>
      <use xlink:href="#DejaVuSans-Oblique-3bc" transform="translate(110.009766 0.015625)"/>
      <use xlink:href="#DejaVuSans-73" transform="translate(173.632812 0.015625)"/>
      <use xlink:href="#DejaVuSans-5d" transform="translate(225.732422 0.015625)"/>
     </g>
    </g>
   </g>
   <g id="matplotlib.axis_2">
    <g id="ytick_1">
     <g id="line2d_7">
      <defs>
       <path id="m32969abe0f" d="M 0 0 
L -3.5 0 
" style="stroke: #000000; stroke-width: 0.8"/>
      </defs>
      <g>
       <use xlink:href="#m32969abe0f" x="36" y="128.16" style="stroke: #000000; stroke-width: 0.8"/>
      </g>
     </g>
     <g id="text_8">
      <!-- 0.0 -->
      <g transform="translate(-2.80625 135.758438) scale(0.2 -0.2)">
       <defs>
        <path id="DejaVuSans-2e" d="M 684 794 
L 1344 794 
L 1344 0 
L 684 0 
L 684 794 
z
" transform="scale(0.015625)"/>
       </defs>
       <use xlink:href="#DejaVuSans-30"/>
       <use xlink:href="#DejaVuSans-2e" x="63.623047"/>
       <use xlink:href="#DejaVuSans-30" x="95.410156"/>
      </g>
     </g>
    </g>
    <g id="ytick_2">
     <g id="line2d_8">
      <g>
       <use xlink:href="#m32969abe0f" x="36" y="72.72" style="stroke: #000000; stroke-width: 0.8"/>
      </g>
     </g>
     <g id="text_9">
      <!-- 0.5 -->
      <g transform="translate(-2.80625 80.318438) scale(0.2 -0.2)">
       <defs>
        <path id="DejaVuSans-35" d="M 691 4666 
L 3169 4666 
L 3169 4134 
L 1269 4134 
L 1269 2991 
Q 1406 3038 1543 3061 
Q 1681 3084 1819 3084 
Q 2600 3084 3056 2656 
Q 3513 2228 3513 1497 
Q 3513 744 3044 326 
Q 2575 -91 1722 -91 
Q 1428 -91 1123 -41 
Q 819 9 494 109 
L 494 744 
Q 775 591 1075 516 
Q 1375 441 1709 441 
Q 2250 441 2565 725 
Q 2881 1009 2881 1497 
Q 2881 1984 2565 2268 
Q 2250 2553 1709 2553 
Q 1456 2553 1204 2497 
Q 953 2441 691 2322 
L 691 4666 
z
" transform="scale(0.015625)"/>
       </defs>
       <use xlink:href="#DejaVuSans-30"/>
       <use xlink:href="#DejaVuSans-2e" x="63.623047"/>
       <use xlink:href="#DejaVuSans-35" x="95.410156"/>
      </g>
     </g>
    </g>
    <g id="ytick_3">
     <g id="line2d_9">
      <g>
       <use xlink:href="#m32969abe0f" x="36" y="17.28" style="stroke: #000000; stroke-width: 0.8"/>
      </g>
     </g>
     <g id="text_10">
      <!-- 1.0 -->
      <g transform="translate(-2.80625 24.878438) scale(0.2 -0.2)">
       <use xlink:href="#DejaVuSans-31"/>
       <use xlink:href="#DejaVuSans-2e" x="63.623047"/>
       <use xlink:href="#DejaVuSans-30" x="95.410156"/>
      </g>
     </g>
    </g>
    <g id="text_11">
     <!-- $\delta_i$ -->
     <g transform="translate(-10.965625 81.12) rotate(-90) scale(0.2 -0.2)">
      <defs>
       <path id="DejaVuSans-Oblique-3b4" d="M 3472 4053 
Q 3197 4272 2450 4272 
Q 1659 4272 1588 3906 
Q 1531 3619 2328 3469 
Q 2953 3353 3253 3003 
Q 3616 2581 3447 1716 
Q 3284 888 2763 400 
Q 2238 -91 1488 -91 
Q 741 -91 406 400 
Q 72 888 241 1747 
Q 363 2384 891 2900 
Q 1097 3100 1353 3213 
Q 913 3459 1000 3900 
Q 1166 4750 2544 4750 
Q 3234 4750 3566 4531 
L 3472 4053 
z
M 1753 3056 
Q 1525 2966 1306 2738 
Q 969 2384 847 1747 
Q 722 1113 919 756 
Q 1119 397 1584 397 
Q 2044 397 2381 759 
Q 2722 1122 2838 1716 
Q 2956 2338 2731 2638 
Q 2491 2959 2103 2994 
Q 1906 3013 1753 3056 
z
" transform="scale(0.015625)"/>
       <path id="DejaVuSans-Oblique-69" d="M 1172 4863 
L 1747 4863 
L 1606 4134 
L 1031 4134 
L 1172 4863 
z
M 909 3500 
L 1484 3500 
L 800 0 
L 225 0 
L 909 3500 
z
" transform="scale(0.015625)"/>
      </defs>
      <use xlink:href="#DejaVuSans-Oblique-3b4" transform="translate(0 0.78125)"/>
      <use xlink:href="#DejaVuSans-Oblique-69" transform="translate(61.181641 -15.625) scale(0.7)"/>
     </g>
    </g>
   </g>
   <g id="line2d_10">
    <path d="M 49.129412 85.468732 
L 49.567545 84.923384 
L 49.786612 84.996172 
L 50.224745 84.456907 
L 50.881945 85.245556 
L 51.320078 85.288066 
L 51.539145 85.502598 
L 51.758212 85.320614 
L 52.196345 85.559759 
L 52.415412 85.424124 
L 53.072612 86.731145 
L 53.291678 87.066434 
L 53.729812 86.871174 
L 53.948878 86.572814 
L 54.387012 86.555811 
L 54.825145 85.712458 
L 55.044212 85.671385 
L 55.482345 85.338393 
L 55.701412 85.574731 
L 55.920478 85.368459 
L 56.358612 85.264482 
L 57.015812 84.908753 
L 57.234878 85.032059 
L 57.673012 85.617785 
L 57.892078 85.580796 
L 58.330212 85.84537 
L 58.549278 86.394116 
L 58.768345 86.512251 
L 59.206478 87.078597 
L 59.863678 87.63562 
L 60.082745 87.361439 
L 60.301812 87.424156 
L 60.739945 86.941258 
L 61.397145 87.190472 
L 61.616212 87.48946 
L 62.273412 88.910479 
L 62.930612 89.311929 
L 63.149678 89.107606 
L 63.587812 89.456288 
L 64.464078 90.665571 
L 64.902212 91.503523 
L 65.121278 91.513933 
L 65.778478 92.901265 
L 65.997545 92.770617 
L 66.435678 93.466793 
L 66.654745 93.668228 
L 66.873812 94.048552 
L 67.092878 94.719199 
L 67.311945 94.582971 
L 67.531012 94.173646 
L 67.750078 94.360813 
L 67.969145 94.101737 
L 68.188212 94.457227 
L 68.626345 94.597133 
L 69.064478 95.190775 
L 69.721678 95.696914 
L 69.940745 95.626293 
L 70.378878 96.232248 
L 70.597945 96.274865 
L 71.255145 96.801952 
L 71.474212 97.530242 
L 71.912345 97.587603 
L 72.131412 97.937551 
L 72.569545 98.046078 
L 73.007678 97.774558 
L 73.664878 98.821539 
L 73.883945 98.744182 
L 74.103012 99.071992 
L 74.322078 99.074215 
L 74.541145 98.644091 
L 74.760212 98.648099 
L 75.198345 97.782514 
L 75.417412 97.891587 
L 75.636478 98.20194 
L 76.074612 98.257092 
L 76.293678 98.525636 
L 76.512745 98.987698 
L 77.169945 98.779483 
L 77.827145 99.648638 
L 78.046212 99.128147 
L 78.265278 99.233899 
L 78.484345 98.880129 
L 79.579678 95.367302 
L 80.455945 94.483605 
L 80.894078 93.359558 
L 81.113145 93.016355 
L 81.551278 91.886983 
L 81.770345 91.538991 
L 83.084745 90.828089 
L 84.399145 88.639832 
L 84.618212 88.428548 
L 84.837278 88.37891 
L 85.275412 88.710117 
L 85.713545 88.265688 
L 85.932612 88.261126 
L 86.370745 88.568024 
L 86.589812 88.51127 
L 87.027945 89.021538 
L 87.685145 89.130668 
L 87.904212 89.512862 
L 88.123278 89.56827 
L 88.561412 89.82633 
L 88.780478 89.834354 
L 88.999545 89.527886 
L 89.218612 89.660192 
L 89.437678 90.028895 
L 89.656745 90.169535 
L 90.971145 93.23377 
L 91.190212 93.584613 
L 91.409278 93.719125 
L 91.628345 93.558231 
L 92.285545 94.140715 
L 92.942745 95.457548 
L 93.161812 95.761696 
L 93.380878 95.687477 
L 93.819012 96.450342 
L 94.914345 98.802844 
L 95.133412 98.759587 
L 95.352478 98.56768 
L 96.009678 98.933374 
L 96.447812 99.717264 
L 96.885945 100.055453 
L 97.324078 101.277531 
L 97.543145 101.238582 
L 98.200345 102.219361 
L 98.419412 102.100777 
L 98.638478 102.543256 
L 98.857545 102.717855 
L 99.076612 102.540686 
L 99.733812 100.008713 
L 99.952878 100.30752 
L 100.391012 99.142471 
L 100.610078 99.096023 
L 100.829145 98.555316 
L 101.048212 98.747533 
L 101.267278 98.444051 
L 101.486345 97.726962 
L 101.705412 97.448691 
L 101.924478 96.947723 
L 102.362612 95.436528 
L 102.800745 94.189827 
L 103.457945 92.215825 
L 103.677012 92.212837 
L 104.115145 91.188492 
L 104.553278 89.437212 
L 104.772345 88.934128 
L 105.429545 86.423469 
L 105.648612 86.026398 
L 106.086745 84.588875 
L 106.524878 83.98609 
L 107.182078 81.587072 
L 107.401145 81.392712 
L 108.496478 77.94591 
L 108.934612 75.878879 
L 109.591812 73.752457 
L 109.810878 73.205494 
L 110.249012 71.766929 
L 110.906212 69.992364 
L 111.125278 69.882684 
L 111.563412 69.42853 
L 111.782478 69.893134 
L 112.439678 69.348993 
L 112.658745 68.735125 
L 112.877812 68.492314 
L 113.096878 67.881089 
L 113.315945 67.827125 
L 113.535012 67.907639 
L 113.973145 68.760223 
L 114.192212 68.76727 
L 115.725678 72.100608 
L 116.382878 72.202922 
L 116.821012 72.915434 
L 117.259145 73.474328 
L 117.697278 73.936742 
L 117.916345 74.708126 
L 118.135412 74.982018 
L 118.573545 77.305878 
L 119.011678 78.349461 
L 119.230745 78.618707 
L 119.449812 79.605646 
L 119.668878 79.983122 
L 119.887945 79.677459 
L 120.107012 79.692466 
L 120.326078 80.217084 
L 120.545145 79.887342 
L 120.764212 79.960508 
L 121.640478 81.455702 
L 122.297678 81.296355 
L 122.516745 81.375793 
L 122.735812 81.971427 
L 122.954878 81.700146 
L 123.393012 81.968295 
L 123.831145 81.621168 
L 124.050212 81.393798 
L 124.707412 81.672813 
L 125.145545 82.176412 
L 125.364612 82.144205 
L 125.802745 81.771216 
L 126.021812 81.586224 
L 126.240878 81.985488 
L 126.459945 82.080822 
L 126.679012 81.889295 
L 126.898078 82.202411 
L 127.117145 82.07689 
L 127.336212 82.328565 
L 127.555278 82.195788 
L 127.993412 82.910357 
L 128.212478 83.158843 
L 128.431545 83.077913 
L 128.650612 83.202824 
L 129.088745 83.70296 
L 129.307812 83.80353 
L 129.526878 83.715024 
L 129.745945 83.753722 
L 129.965012 84.031496 
L 130.184078 83.672281 
L 130.403145 83.942181 
L 130.841278 84.96309 
L 131.498478 86.21135 
L 131.717545 86.64402 
L 131.936612 87.512116 
L 132.155678 87.909374 
L 132.812878 90.124287 
L 133.031945 90.554553 
L 133.470078 91.795284 
L 133.689145 91.680521 
L 133.908212 91.892009 
L 134.346345 93.014553 
L 134.565412 93.399087 
L 134.784478 93.516843 
L 135.660745 95.884808 
L 136.098878 96.616076 
L 136.537012 96.660382 
L 136.756078 96.385599 
L 136.975145 96.471536 
L 137.194212 97.002621 
L 137.413278 97.020128 
L 138.508612 98.720006 
L 138.727678 98.515749 
L 138.946745 98.627171 
L 139.384878 100.03847 
L 139.603945 100.682205 
L 139.823012 100.620925 
L 140.042078 101.036089 
L 140.480212 100.201354 
L 140.918345 100.520409 
L 141.137412 100.871853 
L 141.356478 100.540936 
L 141.575545 100.44372 
L 142.013678 100.667843 
L 142.232745 100.401823 
L 142.451812 100.503073 
L 142.889945 100.039534 
L 143.109012 100.30365 
L 144.423412 99.906539 
L 144.861545 99.44065 
L 145.080612 99.385866 
L 145.518745 99.622555 
L 145.956878 100.455032 
L 146.833145 99.956107 
L 147.052212 100.411888 
L 147.490345 100.509216 
L 148.366612 101.012066 
L 148.585678 100.978855 
L 149.023812 101.418274 
L 149.461945 101.774058 
L 150.338212 101.411754 
L 150.557278 101.392722 
L 150.776345 101.235196 
L 150.995412 101.251013 
L 151.214478 101.008497 
L 152.090745 101.0839 
L 152.967012 101.847766 
L 153.186078 102.330161 
L 153.843278 102.018962 
L 154.062345 101.969864 
L 154.500478 101.706486 
L 154.719545 102.096111 
L 154.938612 102.208707 
L 155.814878 102.126058 
L 156.033945 101.818936 
L 156.253012 102.061979 
L 156.472078 102.053021 
L 156.691145 102.201642 
L 156.910212 102.618214 
L 157.129278 102.582831 
L 157.348345 102.243692 
L 157.567412 102.154793 
L 158.224612 102.574548 
L 158.443678 102.465299 
L 158.662745 102.650279 
L 159.100878 102.305222 
L 159.319945 102.182534 
L 159.539012 101.88978 
L 159.977145 101.854674 
L 160.196212 101.778676 
L 160.415278 101.823763 
L 160.853412 102.215238 
L 161.072478 102.259717 
L 161.291545 102.028672 
L 161.510612 102.140792 
L 161.729678 102.084371 
L 161.948745 102.331478 
L 162.386878 102.011252 
L 162.605945 102.248505 
L 163.044078 102.193084 
L 163.263145 102.431053 
L 163.482212 102.338419 
L 163.701278 102.660529 
L 164.139412 102.678248 
L 164.358478 103.100801 
L 164.796612 103.337648 
L 165.015678 103.224291 
L 165.453812 103.330981 
L 165.672878 103.257959 
L 165.891945 103.326772 
L 166.768212 103.975842 
L 167.206345 104.313192 
L 167.644478 104.114055 
L 167.863545 103.670715 
L 168.082612 103.690866 
L 168.739812 104.428575 
L 168.958878 104.084965 
L 169.397012 104.296774 
L 169.835145 104.385351 
L 170.054212 104.097986 
L 170.273278 104.042276 
L 170.492345 104.287483 
L 170.711412 104.333161 
L 170.930478 104.201421 
L 171.149545 104.24893 
L 171.806745 104.860805 
L 172.244878 104.76542 
L 172.683012 104.728361 
L 172.902078 104.870094 
L 173.340212 104.749543 
L 173.559278 104.968853 
L 173.778345 104.989999 
L 173.997412 105.34591 
L 174.435545 105.456517 
L 174.654612 105.443569 
L 174.873678 105.252379 
L 175.092745 104.686452 
L 175.749945 104.533375 
L 176.407145 104.871829 
L 176.626212 104.390225 
L 177.064345 104.215796 
L 177.502478 104.788215 
L 178.159678 104.616735 
L 178.378745 104.745092 
L 178.597812 104.667325 
L 178.816878 104.341107 
L 179.035945 104.35016 
L 179.255012 104.547488 
L 179.474078 104.575297 
L 179.912212 104.1333 
L 180.131278 104.492451 
L 180.788478 104.311472 
L 181.226612 104.615734 
L 181.445678 104.992509 
L 181.883812 105.146141 
L 182.102878 105.312551 
L 182.321945 105.30855 
L 182.760078 105.750795 
L 182.979145 105.542525 
L 183.417278 105.419772 
L 183.855412 105.754177 
L 184.074478 106.101027 
L 184.293545 106.178412 
L 184.731678 106.015813 
L 184.950745 106.227169 
L 185.169812 106.051984 
L 185.388878 106.198506 
L 185.607945 105.904984 
L 186.046078 106.304358 
L 186.484212 106.349659 
L 186.703278 106.11165 
L 186.922345 106.315147 
L 187.141412 106.307217 
L 187.579545 106.546832 
L 187.798612 106.576982 
L 188.236745 106.950516 
L 188.455812 106.711883 
L 188.674878 106.752513 
L 189.113012 106.361088 
L 189.332078 106.436444 
L 189.551145 106.237098 
L 189.989278 106.50474 
L 190.208345 106.158956 
L 190.646478 105.93775 
L 191.084612 106.219659 
L 191.522745 105.877885 
L 191.741812 105.889351 
L 191.960878 106.070298 
L 192.399012 106.033774 
L 192.618078 105.89327 
L 192.837145 106.022872 
L 193.275278 105.873542 
L 193.494345 105.646419 
L 193.932478 105.01962 
L 194.151545 104.930238 
L 194.370612 105.001366 
L 194.589678 104.85225 
L 195.027812 104.350928 
L 195.246878 104.742583 
L 195.465945 104.439481 
L 195.685012 104.439551 
L 195.904078 104.29135 
L 196.123145 104.365188 
L 196.780345 104.061599 
L 197.218478 104.12093 
L 197.437545 104.00712 
L 197.656612 104.318934 
L 198.094745 104.188385 
L 198.751945 104.482797 
L 199.409145 104.508368 
L 199.847278 104.911197 
L 200.066345 104.709811 
L 200.285412 104.704604 
L 200.504478 104.965014 
L 201.380745 104.500817 
L 201.818878 104.818883 
L 202.037945 104.712803 
L 202.695145 105.026275 
L 203.133278 104.937043 
L 203.790478 104.518896 
L 204.009545 104.535241 
L 204.228612 104.668509 
L 204.666745 104.45379 
L 205.323945 105.411855 
L 205.543012 105.506988 
L 205.981145 105.33601 
L 206.200212 105.59139 
L 206.638345 106.484195 
L 206.857412 106.28243 
L 207.295545 106.36936 
L 207.514612 106.783998 
L 207.733678 106.78358 
L 208.390878 106.116507 
L 208.609945 106.279427 
L 209.048078 106.251704 
L 209.267145 105.961312 
L 209.705278 106.180498 
L 210.143412 105.738741 
L 210.581545 105.429641 
L 211.019678 105.710166 
L 211.238745 105.508899 
L 211.676878 105.80121 
L 211.895945 105.528099 
L 212.115012 105.689411 
L 212.334078 105.609621 
L 212.772212 106.164616 
L 212.991278 105.973261 
L 213.210345 105.949455 
L 213.429412 106.287616 
L 214.086612 106.411489 
L 214.305678 106.308809 
L 214.743812 106.327941 
L 214.962878 106.216002 
L 215.181945 105.887645 
L 215.401012 105.792493 
L 215.620078 105.88724 
L 215.839145 106.113988 
L 216.277278 105.842271 
L 216.496345 105.645431 
L 216.934478 105.886286 
L 217.153545 105.632611 
L 217.372612 105.784959 
L 217.810745 105.579444 
L 218.029812 105.237081 
L 218.248878 105.181098 
L 218.467945 104.989148 
L 218.906078 105.041971 
L 219.125145 105.083412 
L 219.344212 104.86591 
L 219.563278 104.3257 
L 220.001412 104.388813 
L 220.220478 104.270907 
L 220.439545 104.361386 
L 220.658612 104.182045 
L 220.877678 104.345725 
L 221.315812 103.993819 
L 221.753945 103.404083 
L 222.411145 103.220367 
L 223.287412 103.746885 
L 223.944612 103.404611 
L 224.820878 103.223374 
L 225.259012 103.376827 
L 225.478078 103.470641 
L 225.697145 103.728636 
L 226.354345 103.794349 
L 227.011545 103.556944 
L 227.668745 104.276707 
L 227.887812 104.43907 
L 228.106878 104.444818 
L 228.325945 104.114674 
L 228.545012 104.111403 
L 228.764078 104.490891 
L 229.202212 104.566043 
L 229.421278 104.201766 
L 230.297545 104.366037 
L 230.735678 104.309211 
L 231.173812 104.643271 
L 231.392878 104.48905 
L 231.611945 104.640091 
L 231.831012 104.963871 
L 232.926345 105.297868 
L 233.145412 105.698722 
L 233.583545 105.600011 
L 234.240745 106.41494 
L 234.897945 106.468826 
L 235.117012 106.734101 
L 235.555145 106.869315 
L 235.774212 107.175197 
L 235.993278 106.977549 
L 236.431412 107.124699 
L 236.869545 106.847145 
L 237.088612 106.902227 
L 237.307678 106.666831 
L 237.526745 106.672165 
L 237.745812 106.421402 
L 238.841145 107.662326 
L 239.060212 107.469951 
L 239.498345 107.526787 
L 239.936478 107.873456 
L 240.155545 107.640274 
L 240.374612 108.061116 
L 240.593678 108.102818 
L 241.031812 107.272843 
L 241.469945 107.292828 
L 241.908078 106.84171 
L 242.784345 106.316732 
L 243.003412 106.175233 
L 243.222478 106.181437 
L 243.879678 106.610409 
L 244.098745 106.558522 
L 244.536878 106.0728 
L 244.755945 106.016007 
L 245.413145 106.136297 
L 245.851278 106.063774 
L 246.070345 106.078968 
L 246.289412 105.892198 
L 246.289412 105.892198 
" clip-path="url(#p1b8bbfba39)" style="fill: none; stroke: #808080; stroke-width: 1.5; stroke-linecap: square"/>
   </g>
   <g id="patch_3">
    <path d="M 36 128.16 
L 36 17.28 
" style="fill: none; stroke: #000000; stroke-width: 0.8; stroke-linejoin: miter; stroke-linecap: square"/>
   </g>
   <g id="patch_4">
    <path d="M 259.2 128.16 
L 259.2 17.28 
" style="fill: none; stroke: #000000; stroke-width: 0.8; stroke-linejoin: miter; stroke-linecap: square"/>
   </g>
   <g id="patch_5">
    <path d="M 36 128.16 
L 259.2 128.16 
" style="fill: none; stroke: #000000; stroke-width: 0.8; stroke-linejoin: miter; stroke-linecap: square"/>
   </g>
   <g id="patch_6">
    <path d="M 36 17.28 
L 259.2 17.28 
" style="fill: none; stroke: #000000; stroke-width: 0.8; stroke-linejoin: miter; stroke-linecap: square"/>
   </g>
   <g id="text_12">
    <!-- Particle ID 180 -->
    <g transform="translate(56.299219 11.28) scale(0.25 -0.25)">
     <defs>
      <path id="DejaVuSans-50" d="M 1259 4147 
L 1259 2394 
L 2053 2394 
Q 2494 2394 2734 2622 
Q 2975 2850 2975 3272 
Q 2975 3691 2734 3919 
Q 2494 4147 2053 4147 
L 1259 4147 
z
M 628 4666 
L 2053 4666 
Q 2838 4666 3239 4311 
Q 3641 3956 3641 3272 
Q 3641 2581 3239 2228 
Q 2838 1875 2053 1875 
L 1259 1875 
L 1259 0 
L 628 0 
L 628 4666 
z
" transform="scale(0.015625)"/>
      <path id="DejaVuSans-61" d="M 2194 1759 
Q 1497 1759 1228 1600 
Q 959 1441 959 1056 
Q 959 750 1161 570 
Q 1363 391 1709 391 
Q 2188 391 2477 730 
Q 2766 1069 2766 1631 
L 2766 1759 
L 2194 1759 
z
M 3341 1997 
L 3341 0 
L 2766 0 
L 2766 531 
Q 2569 213 2275 61 
Q 1981 -91 1556 -91 
Q 1019 -91 701 211 
Q 384 513 384 1019 
Q 384 1609 779 1909 
Q 1175 2209 1959 2209 
L 2766 2209 
L 2766 2266 
Q 2766 2663 2505 2880 
Q 2244 3097 1772 3097 
Q 1472 3097 1187 3025 
Q 903 2953 641 2809 
L 641 3341 
Q 956 3463 1253 3523 
Q 1550 3584 1831 3584 
Q 2591 3584 2966 3190 
Q 3341 2797 3341 1997 
z
" transform="scale(0.015625)"/>
      <path id="DejaVuSans-72" d="M 2631 2963 
Q 2534 3019 2420 3045 
Q 2306 3072 2169 3072 
Q 1681 3072 1420 2755 
Q 1159 2438 1159 1844 
L 1159 0 
L 581 0 
L 581 3500 
L 1159 3500 
L 1159 2956 
Q 1341 3275 1631 3429 
Q 1922 3584 2338 3584 
Q 2397 3584 2469 3576 
Q 2541 3569 2628 3553 
L 2631 2963 
z
" transform="scale(0.015625)"/>
      <path id="DejaVuSans-69" d="M 603 3500 
L 1178 3500 
L 1178 0 
L 603 0 
L 603 3500 
z
M 603 4863 
L 1178 4863 
L 1178 4134 
L 603 4134 
L 603 4863 
z
" transform="scale(0.015625)"/>
      <path id="DejaVuSans-63" d="M 3122 3366 
L 3122 2828 
Q 2878 2963 2633 3030 
Q 2388 3097 2138 3097 
Q 1578 3097 1268 2742 
Q 959 2388 959 1747 
Q 959 1106 1268 751 
Q 1578 397 2138 397 
Q 2388 397 2633 464 
Q 2878 531 3122 666 
L 3122 134 
Q 2881 22 2623 -34 
Q 2366 -91 2075 -91 
Q 1284 -91 818 406 
Q 353 903 353 1747 
Q 353 2603 823 3093 
Q 1294 3584 2113 3584 
Q 2378 3584 2631 3529 
Q 2884 3475 3122 3366 
z
" transform="scale(0.015625)"/>
      <path id="DejaVuSans-6c" d="M 603 4863 
L 1178 4863 
L 1178 0 
L 603 0 
L 603 4863 
z
" transform="scale(0.015625)"/>
      <path id="DejaVuSans-65" d="M 3597 1894 
L 3597 1613 
L 953 1613 
Q 991 1019 1311 708 
Q 1631 397 2203 397 
Q 2534 397 2845 478 
Q 3156 559 3463 722 
L 3463 178 
Q 3153 47 2828 -22 
Q 2503 -91 2169 -91 
Q 1331 -91 842 396 
Q 353 884 353 1716 
Q 353 2575 817 3079 
Q 1281 3584 2069 3584 
Q 2775 3584 3186 3129 
Q 3597 2675 3597 1894 
z
M 3022 2063 
Q 3016 2534 2758 2815 
Q 2500 3097 2075 3097 
Q 1594 3097 1305 2825 
Q 1016 2553 972 2059 
L 3022 2063 
z
" transform="scale(0.015625)"/>
      <path id="DejaVuSans-49" d="M 628 4666 
L 1259 4666 
L 1259 0 
L 628 0 
L 628 4666 
z
" transform="scale(0.015625)"/>
      <path id="DejaVuSans-44" d="M 1259 4147 
L 1259 519 
L 2022 519 
Q 2988 519 3436 956 
Q 3884 1394 3884 2338 
Q 3884 3275 3436 3711 
Q 2988 4147 2022 4147 
L 1259 4147 
z
M 628 4666 
L 1925 4666 
Q 3281 4666 3915 4102 
Q 4550 3538 4550 2338 
Q 4550 1131 3912 565 
Q 3275 0 1925 0 
L 628 0 
L 628 4666 
z
" transform="scale(0.015625)"/>
     </defs>
     <use xlink:href="#DejaVuSans-50"/>
     <use xlink:href="#DejaVuSans-61" x="55.802734"/>
     <use xlink:href="#DejaVuSans-72" x="117.082031"/>
     <use xlink:href="#DejaVuSans-74" x="158.195312"/>
     <use xlink:href="#DejaVuSans-69" x="197.404297"/>
     <use xlink:href="#DejaVuSans-63" x="225.1875"/>
     <use xlink:href="#DejaVuSans-6c" x="280.167969"/>
     <use xlink:href="#DejaVuSans-65" x="307.951172"/>
     <use xlink:href="#DejaVuSans-20" x="369.474609"/>
     <use xlink:href="#DejaVuSans-49" x="401.261719"/>
     <use xlink:href="#DejaVuSans-44" x="430.753906"/>
     <use xlink:href="#DejaVuSans-20" x="507.755859"/>
     <use xlink:href="#DejaVuSans-31" x="539.542969"/>
     <use xlink:href="#DejaVuSans-38" x="603.166016"/>
     <use xlink:href="#DejaVuSans-30" x="666.789062"/>
    </g>
   </g>
  </g>
 </g>
 <defs>
  <clipPath id="p1b8bbfba39">
   <rect x="36" y="17.28" width="223.2" height="110.88"/>
  </clipPath>
 </defs>
</svg>
